<?xml version="1.0" encoding="UTF-8"?>
<svg xmlns="http://www.w3.org/2000/svg" width="1600" height="960" viewBox="0 0 1600 960">
  <defs>
    <filter id="shadow" x="-20%" y="-20%" width="140%" height="140%">
      <feDropShadow dx="0" dy="12" stdDeviation="14" flood-color="#111827" flood-opacity="0.08"/>
    </filter>
    <linearGradient id="coolWash" x1="0" x2="1" y1="0" y2="1">
      <stop offset="0" stop-color="#f8fbff"/>
      <stop offset="1" stop-color="#f4f6f8"/>
    </linearGradient>
  </defs>
  <rect width="100%" height="100%" fill="#f7f8fb"/>
  <rect x="0" y="0" width="248" height="960" rx="0" fill="#fbfbfc" stroke="none"/><line x1="248" y1="0" x2="248" y2="960" stroke="#dde2ea" stroke-width="1"/><rect x="24" y="24" width="36" height="36" rx="10" fill="#ffffff" stroke="#dde2ea"/><text x="36" y="48" fill="#2563eb" font-size="18" font-weight="850">T</text><text x="72" y="38" fill="#111827" font-size="15" font-weight="800">TIPS Dashboard</text><text x="72" y="57" fill="#657282" font-size="12" font-weight="600">운영 포털</text><text x="24" y="98" fill="#9aa4b2" font-size="12" font-weight="800">운영</text><rect x="16" y="98" width="216" height="34" rx="10" fill="#eaf1ff" stroke="none"/><rect x="28" y="109" width="14" height="14" rx="4" fill="#2563eb" stroke="none"/><text x="54" y="121" fill="#2563eb" font-size="14" font-weight="800">대시보드</text><rect x="28" y="149" width="14" height="14" rx="4" fill="#dde2ea" stroke="none"/><text x="54" y="161" fill="#111827" font-size="14" font-weight="600">학사일정</text><rect x="28" y="189" width="14" height="14" rx="4" fill="#dde2ea" stroke="none"/><text x="54" y="201" fill="#111827" font-size="14" font-weight="600">시간표</text><text x="24" y="258" fill="#9aa4b2" font-size="12" font-weight="800">관리</text><rect x="28" y="269" width="14" height="14" rx="4" fill="#dde2ea" stroke="none"/><text x="54" y="281" fill="#111827" font-size="14" font-weight="600">수업계획</text><rect x="28" y="309" width="14" height="14" rx="4" fill="#dde2ea" stroke="none"/><text x="54" y="321" fill="#111827" font-size="14" font-weight="600">학생관리</text><rect x="28" y="349" width="14" height="14" rx="4" fill="#dde2ea" stroke="none"/><text x="54" y="361" fill="#111827" font-size="14" font-weight="600">수업관리</text><rect x="28" y="389" width="14" height="14" rx="4" fill="#dde2ea" stroke="none"/><text x="54" y="401" fill="#111827" font-size="14" font-weight="600">교재관리</text><text x="24" y="458" fill="#9aa4b2" font-size="12" font-weight="800">설정</text><rect x="28" y="469" width="14" height="14" rx="4" fill="#dde2ea" stroke="none"/><text x="54" y="481" fill="#111827" font-size="14" font-weight="600">환경설정</text><rect x="18" y="886" width="212" height="50" rx="14" fill="#ffffff" stroke="#dde2ea"/><text x="62" y="916" fill="#111827" font-size="14" font-weight="750">임현준</text><text x="62" y="933" fill="#657282" font-size="11" font-weight="500">yeoyuasset</text><rect x="32" y="902" width="24" height="24" rx="99" fill="#eaf1ff" stroke="none"/>
  <rect x="248" y="0" width="1352" height="68" rx="0" fill="#ffffff" stroke="none"/><line x1="248" y1="68" x2="1600" y2="68" stroke="#dde2ea" stroke-width="1"/><text x="276" y="43" fill="#657282" font-size="13" font-weight="650">운영</text><text x="321" y="43" fill="#9aa4b2" font-size="13" font-weight="500">/</text><text x="340" y="43" fill="#111827" font-size="18" font-weight="850">대시보드</text><rect x="1130" y="20" width="130" height="38" rx="10" fill="#ffffff" stroke="#dde2ea"/><text x="1195" y="44" fill="#111827" font-size="14" font-weight="700" text-anchor="middle">홈페이지 확인</text><rect x="1282" y="20" width="228" height="36" rx="9" fill="#ffffff" stroke="#dde2ea"/><text x="1332" y="43" fill="#657282" font-size="13" font-weight="650">빠른 이동</text><rect x="1522" y="20" width="36" height="36" rx="9" fill="#ffffff" stroke="#dde2ea"/>
  <text x="276" y="104" fill="#111827" font-size="26" font-weight="850">오늘 할 일</text><text x="276" y="130" fill="#657282" font-size="14" font-weight="550">관리팀이 지금 처리해야 하는 항목만 남긴 운영 홈</text><rect x="276" y="160" width="210" height="74" rx="14" fill="#ffffff" stroke="#dde2ea"/><text x="294" y="187" fill="#657282" font-size="13" font-weight="600">교재 요청</text><text x="294" y="216" fill="#111827" font-size="24" font-weight="750">5</text><rect x="478" y="174" width="4" height="46" rx="2" fill="#2563eb" stroke="none"/><rect x="502" y="160" width="230" height="74" rx="14" fill="#ffffff" stroke="#dde2ea"/><text x="520" y="187" fill="#657282" font-size="13" font-weight="600">수업계획 미완료</text><text x="520" y="216" fill="#111827" font-size="24" font-weight="750">13</text><rect x="724" y="174" width="4" height="46" rx="2" fill="#6d28d9" stroke="none"/><rect x="748" y="160" width="210" height="74" rx="14" fill="#ffffff" stroke="#dde2ea"/><text x="766" y="187" fill="#657282" font-size="13" font-weight="600">재고 실사</text><text x="766" y="216" fill="#111827" font-size="24" font-weight="750">62</text><rect x="950" y="174" width="4" height="46" rx="2" fill="#b45309" stroke="none"/><rect x="974" y="160" width="210" height="74" rx="14" fill="#ffffff" stroke="#dde2ea"/><text x="992" y="187" fill="#657282" font-size="13" font-weight="600">오늘 수업</text><text x="992" y="216" fill="#111827" font-size="24" font-weight="750">18</text><rect x="1176" y="174" width="4" height="46" rx="2" fill="#0f766e" stroke="none"/><rect x="276" y="266" width="840" height="330" rx="18" fill="#ffffff" stroke="#dde2ea" filter="url(#shadow)"/><text x="300" y="300" fill="#111827" font-size="18" font-weight="800">우선 처리</text><rect x="296" y="322" width="800" height="266" rx="14" fill="#ffffff" stroke="#dde2ea"/><rect x="296" y="322" width="800" height="42" rx="14" fill="#fafbfc" stroke="none"/><line x1="296" y1="364" x2="1096" y2="364" stroke="#dde2ea" stroke-width="1"/><line x1="556" y1="322" x2="556" y2="588" stroke="#edf0f4" stroke-width="1"/><line x1="856" y1="322" x2="856" y2="588" stroke="#edf0f4" stroke-width="1"/><line x1="966" y1="322" x2="966" y2="588" stroke="#edf0f4" stroke-width="1"/><text x="308" y="349" fill="#657282" font-size="12" font-weight="700">업무</text><text x="568" y="349" fill="#657282" font-size="12" font-weight="700">대상</text><text x="868" y="349" fill="#657282" font-size="12" font-weight="700">기한</text><text x="978" y="349" fill="#657282" font-size="12" font-weight="700">상태</text><rect x="296" y="364" width="800" height="56" rx="0" fill="#ffffff" stroke="#edf0f4"/><text x="308" y="397" fill="#111827" font-size="13" font-weight="550" text-anchor="start">교재 미등록 요청</text><text x="568" y="397" fill="#111827" font-size="13" font-weight="550" text-anchor="start">문제로마스터하는 중학영문법</text><text x="868" y="397" fill="#111827" font-size="13" font-weight="550" text-anchor="start">오늘</text><text x="978" y="397" fill="#b45309" font-size="13" font-weight="800" text-anchor="start">검토</text><rect x="296" y="420" width="800" height="56" rx="0" fill="#fbfcfd" stroke="#edf0f4"/><text x="308" y="453" fill="#111827" font-size="13" font-weight="550" text-anchor="start">수업 진도 미배정</text><text x="568" y="453" fill="#111827" font-size="13" font-weight="550" text-anchor="start">고3 모고반 · 6월 5회</text><text x="868" y="453" fill="#111827" font-size="13" font-weight="550" text-anchor="start">오늘</text><text x="978" y="453" fill="#2563eb" font-size="13" font-weight="800" text-anchor="start">배정</text><rect x="296" y="476" width="800" height="56" rx="0" fill="#ffffff" stroke="#edf0f4"/><text x="308" y="509" fill="#111827" font-size="13" font-weight="550" text-anchor="start">재고 실사</text><text x="568" y="509" fill="#111827" font-size="13" font-weight="550" text-anchor="start">본관 영어 교재 237종</text><text x="868" y="509" fill="#111827" font-size="13" font-weight="550" text-anchor="start">이번주</text><text x="978" y="509" fill="#0f766e" font-size="13" font-weight="800" text-anchor="start">진행</text><rect x="296" y="532" width="800" height="56" rx="0" fill="#fbfcfd" stroke="#edf0f4"/><text x="308" y="565" fill="#111827" font-size="13" font-weight="550" text-anchor="start">학생 상태 확인</text><text x="568" y="565" fill="#111827" font-size="13" font-weight="550" text-anchor="start">퇴원 처리 대기 3명</text><text x="868" y="565" fill="#111827" font-size="13" font-weight="550" text-anchor="start">내일</text><text x="978" y="565" fill="#657282" font-size="13" font-weight="800" text-anchor="start">확인</text><rect x="1148" y="266" width="424" height="330" rx="18" fill="#ffffff" stroke="#dde2ea" filter="url(#shadow)"/><text x="1172" y="300" fill="#111827" font-size="18" font-weight="800">운영 흐름</text><circle cx="1204" cy="376" r="28" fill="#2563eb" stroke="#2563eb"/><text x="1204" y="382" fill="#fff" font-size="13" font-weight="800" text-anchor="middle">요청</text><line x1="1232" y1="376" x2="1280" y2="376" stroke="#dde2ea" stroke-width="2"/><circle cx="1308" cy="376" r="28" fill="#2563eb" stroke="#2563eb"/><text x="1308" y="382" fill="#fff" font-size="13" font-weight="800" text-anchor="middle">주문</text><line x1="1336" y1="376" x2="1384" y2="376" stroke="#dde2ea" stroke-width="2"/><circle cx="1412" cy="376" r="28" fill="#f4f6f8" stroke="#dde2ea"/><text x="1412" y="382" fill="#657282" font-size="13" font-weight="800" text-anchor="middle">입고</text><line x1="1440" y1="376" x2="1488" y2="376" stroke="#dde2ea" stroke-width="2"/><circle cx="1516" cy="376" r="28" fill="#f4f6f8" stroke="#dde2ea"/><text x="1516" y="382" fill="#657282" font-size="13" font-weight="800" text-anchor="middle">출고</text><line x1="1544" y1="376" x2="1592" y2="376" stroke="#dde2ea" stroke-width="2"/><circle cx="1620" cy="376" r="28" fill="#f4f6f8" stroke="#dde2ea"/><text x="1620" y="382" fill="#657282" font-size="13" font-weight="800" text-anchor="middle">정산</text><rect x="276" y="628" width="1296" height="274" rx="14" fill="#ffffff" stroke="#dde2ea"/><rect x="276" y="628" width="1296" height="42" rx="14" fill="#fafbfc" stroke="none"/><line x1="276" y1="670" x2="1572" y2="670" stroke="#dde2ea" stroke-width="1"/><line x1="586" y1="628" x2="586" y2="902" stroke="#edf0f4" stroke-width="1"/><line x1="916" y1="628" x2="916" y2="902" stroke="#edf0f4" stroke-width="1"/><line x1="1066" y1="628" x2="1066" y2="902" stroke="#edf0f4" stroke-width="1"/><line x1="1306" y1="628" x2="1306" y2="902" stroke="#edf0f4" stroke-width="1"/><text x="288" y="655" fill="#657282" font-size="12" font-weight="700">최근 이벤트</text><text x="598" y="655" fill="#657282" font-size="12" font-weight="700">연결</text><text x="928" y="655" fill="#657282" font-size="12" font-weight="700">담당</text><text x="1078" y="655" fill="#657282" font-size="12" font-weight="700">다음 행동</text><text x="1318" y="655" fill="#657282" font-size="12" font-weight="700">시간</text><rect x="276" y="670" width="1296" height="58" rx="0" fill="#ffffff" stroke="#edf0f4"/><text x="288" y="704" fill="#111827" font-size="13" font-weight="550" text-anchor="start">출고 대기 생성</text><text x="598" y="704" fill="#111827" font-size="13" font-weight="550" text-anchor="start">고3 모고반 · 테스트 교재</text><text x="928" y="704" fill="#111827" font-size="13" font-weight="550" text-anchor="start">관리팀</text><text x="1078" y="704" fill="#111827" font-size="13" font-weight="550" text-anchor="start">재고 확인</text><text x="1318" y="704" fill="#111827" font-size="13" font-weight="550" text-anchor="start">10분 전</text><rect x="276" y="728" width="1296" height="58" rx="0" fill="#fbfcfd" stroke="#edf0f4"/><text x="288" y="762" fill="#111827" font-size="13" font-weight="550" text-anchor="start">교재 요청 접수</text><text x="598" y="762" fill="#111827" font-size="13" font-weight="550" text-anchor="start">고1 영어 · 직접 입력</text><text x="928" y="762" fill="#111827" font-size="13" font-weight="550" text-anchor="start">영어팀</text><text x="1078" y="762" fill="#111827" font-size="13" font-weight="550" text-anchor="start">마스터 검토</text><text x="1318" y="762" fill="#111827" font-size="13" font-weight="550" text-anchor="start">18분 전</text><rect x="276" y="786" width="1296" height="58" rx="0" fill="#ffffff" stroke="#edf0f4"/><text x="288" y="820" fill="#111827" font-size="13" font-weight="550" text-anchor="start">수업계획 저장</text><text x="598" y="820" fill="#111827" font-size="13" font-weight="550" text-anchor="start">강부희 · 5월 진도</text><text x="928" y="820" fill="#111827" font-size="13" font-weight="550" text-anchor="start">수학팀</text><text x="1078" y="820" fill="#111827" font-size="13" font-weight="550" text-anchor="start">교재 범위 배정</text><text x="1318" y="820" fill="#111827" font-size="13" font-weight="550" text-anchor="start">42분 전</text><rect x="276" y="844" width="1296" height="58" rx="0" fill="#fbfcfd" stroke="#edf0f4"/><text x="288" y="878" fill="#111827" font-size="13" font-weight="550" text-anchor="start">학생 상태 변경</text><text x="598" y="878" fill="#111827" font-size="13" font-weight="550" text-anchor="start">차예은 · 재원</text><text x="928" y="878" fill="#111827" font-size="13" font-weight="550" text-anchor="start">관리팀</text><text x="1078" y="878" fill="#111827" font-size="13" font-weight="550" text-anchor="start">이력 확인</text><text x="1318" y="878" fill="#111827" font-size="13" font-weight="550" text-anchor="start">1시간 전</text>
</svg>