<?xml version="1.0" encoding="UTF-8"?>
<svg xmlns="http://www.w3.org/2000/svg" width="1600" height="960" viewBox="0 0 1600 960">
  <defs>
    <filter id="shadow" x="-20%" y="-20%" width="140%" height="140%">
      <feDropShadow dx="0" dy="12" stdDeviation="14" flood-color="#111827" flood-opacity="0.08"/>
    </filter>
    <linearGradient id="coolWash" x1="0" x2="1" y1="0" y2="1">
      <stop offset="0" stop-color="#f8fbff"/>
      <stop offset="1" stop-color="#f4f6f8"/>
    </linearGradient>
  </defs>
  <rect width="100%" height="100%" fill="#f7f8fb"/>
  <rect x="0" y="0" width="248" height="960" rx="0" fill="#fbfbfc" stroke="none"/><line x1="248" y1="0" x2="248" y2="960" stroke="#dde2ea" stroke-width="1"/><rect x="24" y="24" width="36" height="36" rx="10" fill="#ffffff" stroke="#dde2ea"/><text x="36" y="48" fill="#2563eb" font-size="18" font-weight="850">T</text><text x="72" y="38" fill="#111827" font-size="15" font-weight="800">TIPS Dashboard</text><text x="72" y="57" fill="#657282" font-size="12" font-weight="600">운영 포털</text><text x="24" y="98" fill="#9aa4b2" font-size="12" font-weight="800">운영</text><rect x="28" y="109" width="14" height="14" rx="4" fill="#dde2ea" stroke="none"/><text x="54" y="121" fill="#111827" font-size="14" font-weight="600">대시보드</text><rect x="16" y="138" width="216" height="34" rx="10" fill="#eaf1ff" stroke="none"/><rect x="28" y="149" width="14" height="14" rx="4" fill="#2563eb" stroke="none"/><text x="54" y="161" fill="#2563eb" font-size="14" font-weight="800">학사일정</text><rect x="28" y="189" width="14" height="14" rx="4" fill="#dde2ea" stroke="none"/><text x="54" y="201" fill="#111827" font-size="14" font-weight="600">시간표</text><text x="24" y="258" fill="#9aa4b2" font-size="12" font-weight="800">관리</text><rect x="28" y="269" width="14" height="14" rx="4" fill="#dde2ea" stroke="none"/><text x="54" y="281" fill="#111827" font-size="14" font-weight="600">수업계획</text><rect x="28" y="309" width="14" height="14" rx="4" fill="#dde2ea" stroke="none"/><text x="54" y="321" fill="#111827" font-size="14" font-weight="600">학생관리</text><rect x="28" y="349" width="14" height="14" rx="4" fill="#dde2ea" stroke="none"/><text x="54" y="361" fill="#111827" font-size="14" font-weight="600">수업관리</text><rect x="28" y="389" width="14" height="14" rx="4" fill="#dde2ea" stroke="none"/><text x="54" y="401" fill="#111827" font-size="14" font-weight="600">교재관리</text><text x="24" y="458" fill="#9aa4b2" font-size="12" font-weight="800">설정</text><rect x="28" y="469" width="14" height="14" rx="4" fill="#dde2ea" stroke="none"/><text x="54" y="481" fill="#111827" font-size="14" font-weight="600">환경설정</text><rect x="18" y="886" width="212" height="50" rx="14" fill="#ffffff" stroke="#dde2ea"/><text x="62" y="916" fill="#111827" font-size="14" font-weight="750">임현준</text><text x="62" y="933" fill="#657282" font-size="11" font-weight="500">yeoyuasset</text><rect x="32" y="902" width="24" height="24" rx="99" fill="#eaf1ff" stroke="none"/>
  <rect x="248" y="0" width="1352" height="68" rx="0" fill="#ffffff" stroke="none"/><line x1="248" y1="68" x2="1600" y2="68" stroke="#dde2ea" stroke-width="1"/><text x="276" y="43" fill="#657282" font-size="13" font-weight="650">운영</text><text x="321" y="43" fill="#9aa4b2" font-size="13" font-weight="500">/</text><text x="340" y="43" fill="#111827" font-size="18" font-weight="850">학사일정</text><rect x="1130" y="20" width="130" height="38" rx="10" fill="#ffffff" stroke="#dde2ea"/><text x="1195" y="44" fill="#111827" font-size="14" font-weight="700" text-anchor="middle">홈페이지 확인</text><rect x="1282" y="20" width="228" height="36" rx="9" fill="#ffffff" stroke="#dde2ea"/><text x="1332" y="43" fill="#657282" font-size="13" font-weight="650">빠른 이동</text><rect x="1522" y="20" width="36" height="36" rx="9" fill="#ffffff" stroke="#dde2ea"/>
  <rect x="276" y="96" width="1296" height="62" rx="14" fill="#ffffff" stroke="#dde2ea"/><rect x="290" y="109" width="92" height="34" rx="10" fill="#2563eb" stroke="#2563eb"/><text x="305" y="131" fill="#fff" font-size="13" font-weight="650">월</text><rect x="392" y="109" width="92" height="34" rx="10" fill="#ffffff" stroke="#dde2ea"/><text x="407" y="131" fill="#111827" font-size="13" font-weight="650">연간</text><rect x="494" y="109" width="92" height="34" rx="10" fill="#ffffff" stroke="#dde2ea"/><text x="509" y="131" fill="#111827" font-size="13" font-weight="650">시험</text><rect x="596" y="109" width="92" height="34" rx="10" fill="#ffffff" stroke="#dde2ea"/><text x="611" y="131" fill="#111827" font-size="13" font-weight="650">휴강</text><rect x="1440" y="108" width="110" height="38" rx="10" fill="#2563eb" stroke="#2563eb"/><text x="1495" y="132" fill="#fff" font-size="14" font-weight="700" text-anchor="middle">일정 추가</text><rect x="276" y="188" width="760" height="600" rx="18" fill="#ffffff" stroke="#dde2ea" filter="url(#shadow)"/><text x="308" y="228" fill="#111827" font-size="24" font-weight="850">2026년 6월</text><text x="348" y="228" fill="#657282" font-size="12" font-weight="800" text-anchor="middle">일</text><text x="432" y="228" fill="#657282" font-size="12" font-weight="800" text-anchor="middle">월</text><text x="516" y="228" fill="#657282" font-size="12" font-weight="800" text-anchor="middle">화</text><text x="600" y="228" fill="#657282" font-size="12" font-weight="800" text-anchor="middle">수</text><text x="684" y="228" fill="#657282" font-size="12" font-weight="800" text-anchor="middle">목</text><text x="768" y="228" fill="#657282" font-size="12" font-weight="800" text-anchor="middle">금</text><text x="852" y="228" fill="#657282" font-size="12" font-weight="800" text-anchor="middle">토</text><rect x="310" y="246" width="78" height="66" rx="14" fill="#ffffff" stroke="#dde2ea"/><text x="322" y="268" fill="#9aa4b2" font-size="12" font-weight="700">30</text><rect x="394" y="246" width="78" height="66" rx="14" fill="#ffffff" stroke="#dde2ea"/><text x="406" y="268" fill="#9aa4b2" font-size="12" font-weight="700">31</text><rect x="478" y="246" width="78" height="66" rx="14" fill="#ffffff" stroke="#dde2ea"/><text x="490" y="268" fill="#111827" font-size="12" font-weight="700">1</text><rect x="562" y="246" width="78" height="66" rx="14" fill="#ffffff" stroke="#dde2ea"/><text x="574" y="268" fill="#111827" font-size="12" font-weight="700">2</text><rect x="646" y="246" width="78" height="66" rx="14" fill="#ffffff" stroke="#dde2ea"/><text x="658" y="268" fill="#111827" font-size="12" font-weight="700">3</text><rect x="730" y="246" width="78" height="66" rx="14" fill="#ffffff" stroke="#dde2ea"/><text x="742" y="268" fill="#111827" font-size="12" font-weight="700">4</text><rect x="814" y="246" width="78" height="66" rx="14" fill="#eaf1ff" stroke="#dde2ea"/><text x="826" y="268" fill="#111827" font-size="12" font-weight="700">5</text><text x="852" y="288" fill="#2563eb" font-size="12" font-weight="800" text-anchor="middle">특강</text><rect x="310" y="318" width="78" height="66" rx="14" fill="#ffffff" stroke="#dde2ea"/><text x="322" y="340" fill="#111827" font-size="12" font-weight="700">6</text><rect x="394" y="318" width="78" height="66" rx="14" fill="#ffffff" stroke="#dde2ea"/><text x="406" y="340" fill="#111827" font-size="12" font-weight="700">7</text><rect x="478" y="318" width="78" height="66" rx="14" fill="#eaf1ff" stroke="#dde2ea"/><text x="490" y="340" fill="#111827" font-size="12" font-weight="700">8</text><text x="516" y="360" fill="#2563eb" font-size="12" font-weight="800" text-anchor="middle">특강</text><rect x="562" y="318" width="78" height="66" rx="14" fill="#ffffff" stroke="#dde2ea"/><text x="574" y="340" fill="#111827" font-size="12" font-weight="700">9</text><rect x="646" y="318" width="78" height="66" rx="14" fill="#ffffff" stroke="#dde2ea"/><text x="658" y="340" fill="#111827" font-size="12" font-weight="700">10</text><rect x="730" y="318" width="78" height="66" rx="14" fill="#ffffff" stroke="#dde2ea"/><text x="742" y="340" fill="#111827" font-size="12" font-weight="700">11</text><rect x="814" y="318" width="78" height="66" rx="14" fill="#ffffff" stroke="#dde2ea"/><text x="826" y="340" fill="#111827" font-size="12" font-weight="700">12</text><rect x="310" y="390" width="78" height="66" rx="14" fill="#ffffff" stroke="#dde2ea"/><text x="322" y="412" fill="#111827" font-size="12" font-weight="700">13</text><rect x="394" y="390" width="78" height="66" rx="14" fill="#eaf1ff" stroke="#dde2ea"/><text x="406" y="412" fill="#111827" font-size="12" font-weight="700">14</text><text x="432" y="432" fill="#2563eb" font-size="12" font-weight="800" text-anchor="middle">특강</text><rect x="478" y="390" width="78" height="66" rx="14" fill="#ffffff" stroke="#dde2ea"/><text x="490" y="412" fill="#111827" font-size="12" font-weight="700">15</text><rect x="562" y="390" width="78" height="66" rx="14" fill="#ffffff" stroke="#dde2ea"/><text x="574" y="412" fill="#111827" font-size="12" font-weight="700">16</text><rect x="646" y="390" width="78" height="66" rx="14" fill="#eaf1ff" stroke="#dde2ea"/><text x="658" y="412" fill="#111827" font-size="12" font-weight="700">17</text><text x="684" y="432" fill="#2563eb" font-size="12" font-weight="800" text-anchor="middle">특강</text><rect x="730" y="390" width="78" height="66" rx="14" fill="#ffe4e6" stroke="#dde2ea"/><text x="742" y="412" fill="#111827" font-size="12" font-weight="700">18</text><rect x="814" y="390" width="78" height="66" rx="14" fill="#ffe4e6" stroke="#dde2ea"/><text x="826" y="412" fill="#111827" font-size="12" font-weight="700">19</text><rect x="310" y="462" width="78" height="66" rx="14" fill="#ffe4e6" stroke="#dde2ea"/><text x="322" y="484" fill="#111827" font-size="12" font-weight="700">20</text><rect x="394" y="462" width="78" height="66" rx="14" fill="#ffffff" stroke="#dde2ea"/><text x="406" y="484" fill="#111827" font-size="12" font-weight="700">21</text><rect x="478" y="462" width="78" height="66" rx="14" fill="#ffffff" stroke="#dde2ea"/><text x="490" y="484" fill="#111827" font-size="12" font-weight="700">22</text><rect x="562" y="462" width="78" height="66" rx="14" fill="#eaf1ff" stroke="#dde2ea"/><text x="574" y="484" fill="#111827" font-size="12" font-weight="700">23</text><text x="600" y="504" fill="#2563eb" font-size="12" font-weight="800" text-anchor="middle">특강</text><rect x="646" y="462" width="78" height="66" rx="14" fill="#ffffff" stroke="#dde2ea"/><text x="658" y="484" fill="#111827" font-size="12" font-weight="700">24</text><rect x="730" y="462" width="78" height="66" rx="14" fill="#ffffff" stroke="#dde2ea"/><text x="742" y="484" fill="#111827" font-size="12" font-weight="700">25</text><rect x="814" y="462" width="78" height="66" rx="14" fill="#ffffff" stroke="#dde2ea"/><text x="826" y="484" fill="#111827" font-size="12" font-weight="700">26</text><rect x="310" y="534" width="78" height="66" rx="14" fill="#ffffff" stroke="#dde2ea"/><text x="322" y="556" fill="#111827" font-size="12" font-weight="700">27</text><rect x="394" y="534" width="78" height="66" rx="14" fill="#ffffff" stroke="#dde2ea"/><text x="406" y="556" fill="#111827" font-size="12" font-weight="700">28</text><rect x="478" y="534" width="78" height="66" rx="14" fill="#ffffff" stroke="#dde2ea"/><text x="490" y="556" fill="#111827" font-size="12" font-weight="700">29</text><rect x="562" y="534" width="78" height="66" rx="14" fill="#ffffff" stroke="#dde2ea"/><text x="574" y="556" fill="#111827" font-size="12" font-weight="700">30</text><rect x="646" y="534" width="78" height="66" rx="14" fill="#ffffff" stroke="#dde2ea"/><text x="658" y="556" fill="#111827" font-size="12" font-weight="700">31</text><rect x="730" y="534" width="78" height="66" rx="14" fill="#ffffff" stroke="#dde2ea"/><text x="742" y="556" fill="#111827" font-size="12" font-weight="700">32</text><rect x="814" y="534" width="78" height="66" rx="14" fill="#ffffff" stroke="#dde2ea"/><text x="826" y="556" fill="#111827" font-size="12" font-weight="700">33</text><rect x="1068" y="188" width="504" height="600" rx="18" fill="#ffffff" stroke="#dde2ea" filter="url(#shadow)"/><text x="1100" y="228" fill="#111827" font-size="24" font-weight="850">연간 보드</text><text x="1100" y="266" fill="#111827" font-size="15" font-weight="800">1학기</text><rect x="1176" y="246" width="450" height="42" rx="12" fill="#f4f6f8" stroke="#dde2ea"/><text x="1194" y="272" fill="#657282" font-size="13" font-weight="700">시험 · 휴강 · 보강 일정</text><text x="1100" y="384" fill="#111827" font-size="15" font-weight="800">여름</text><rect x="1176" y="364" width="450" height="42" rx="12" fill="#eaf1ff" stroke="#dde2ea"/><text x="1194" y="390" fill="#2563eb" font-size="13" font-weight="700">방학 특강 · 교재 입고 집중</text><text x="1100" y="502" fill="#111827" font-size="15" font-weight="800">2학기</text><rect x="1176" y="482" width="450" height="42" rx="12" fill="#f4f6f8" stroke="#dde2ea"/><text x="1194" y="508" fill="#657282" font-size="13" font-weight="700">시험 · 휴강 · 보강 일정</text><text x="1100" y="620" fill="#111827" font-size="15" font-weight="800">겨울</text><rect x="1176" y="600" width="450" height="42" rx="12" fill="#f4f6f8" stroke="#dde2ea"/><text x="1194" y="626" fill="#657282" font-size="13" font-weight="700">시험 · 휴강 · 보강 일정</text>
</svg>