<?xml version="1.0" encoding="UTF-8"?>
<svg xmlns="http://www.w3.org/2000/svg" width="1600" height="960" viewBox="0 0 1600 960">
  <defs>
    <filter id="shadow" x="-20%" y="-20%" width="140%" height="140%">
      <feDropShadow dx="0" dy="12" stdDeviation="14" flood-color="#111827" flood-opacity="0.08"/>
    </filter>
    <linearGradient id="coolWash" x1="0" x2="1" y1="0" y2="1">
      <stop offset="0" stop-color="#f8fbff"/>
      <stop offset="1" stop-color="#f4f6f8"/>
    </linearGradient>
  </defs>
  <rect width="100%" height="100%" fill="#f7f8fb"/>
  <rect x="0" y="0" width="248" height="960" rx="0" fill="#fbfbfc" stroke="none"/><line x1="248" y1="0" x2="248" y2="960" stroke="#dde2ea" stroke-width="1"/><rect x="24" y="24" width="36" height="36" rx="10" fill="#ffffff" stroke="#dde2ea"/><text x="36" y="48" fill="#2563eb" font-size="18" font-weight="850">T</text><text x="72" y="38" fill="#111827" font-size="15" font-weight="800">TIPS Dashboard</text><text x="72" y="57" fill="#657282" font-size="12" font-weight="600">운영 포털</text><text x="24" y="98" fill="#9aa4b2" font-size="12" font-weight="800">운영</text><rect x="28" y="109" width="14" height="14" rx="4" fill="#dde2ea" stroke="none"/><text x="54" y="121" fill="#111827" font-size="14" font-weight="600">대시보드</text><rect x="28" y="149" width="14" height="14" rx="4" fill="#dde2ea" stroke="none"/><text x="54" y="161" fill="#111827" font-size="14" font-weight="600">학사일정</text><rect x="16" y="178" width="216" height="34" rx="10" fill="#eaf1ff" stroke="none"/><rect x="28" y="189" width="14" height="14" rx="4" fill="#2563eb" stroke="none"/><text x="54" y="201" fill="#2563eb" font-size="14" font-weight="800">시간표</text><text x="24" y="258" fill="#9aa4b2" font-size="12" font-weight="800">관리</text><rect x="28" y="269" width="14" height="14" rx="4" fill="#dde2ea" stroke="none"/><text x="54" y="281" fill="#111827" font-size="14" font-weight="600">수업계획</text><rect x="28" y="309" width="14" height="14" rx="4" fill="#dde2ea" stroke="none"/><text x="54" y="321" fill="#111827" font-size="14" font-weight="600">학생관리</text><rect x="28" y="349" width="14" height="14" rx="4" fill="#dde2ea" stroke="none"/><text x="54" y="361" fill="#111827" font-size="14" font-weight="600">수업관리</text><rect x="28" y="389" width="14" height="14" rx="4" fill="#dde2ea" stroke="none"/><text x="54" y="401" fill="#111827" font-size="14" font-weight="600">교재관리</text><text x="24" y="458" fill="#9aa4b2" font-size="12" font-weight="800">설정</text><rect x="28" y="469" width="14" height="14" rx="4" fill="#dde2ea" stroke="none"/><text x="54" y="481" fill="#111827" font-size="14" font-weight="600">환경설정</text><rect x="18" y="886" width="212" height="50" rx="14" fill="#ffffff" stroke="#dde2ea"/><text x="62" y="916" fill="#111827" font-size="14" font-weight="750">임현준</text><text x="62" y="933" fill="#657282" font-size="11" font-weight="500">yeoyuasset</text><rect x="32" y="902" width="24" height="24" rx="99" fill="#eaf1ff" stroke="none"/>
  <rect x="248" y="0" width="1352" height="68" rx="0" fill="#ffffff" stroke="none"/><line x1="248" y1="68" x2="1600" y2="68" stroke="#dde2ea" stroke-width="1"/><text x="276" y="43" fill="#657282" font-size="13" font-weight="650">운영</text><text x="321" y="43" fill="#9aa4b2" font-size="13" font-weight="500">/</text><text x="340" y="43" fill="#111827" font-size="18" font-weight="850">시간표</text><rect x="1130" y="20" width="130" height="38" rx="10" fill="#ffffff" stroke="#dde2ea"/><text x="1195" y="44" fill="#111827" font-size="14" font-weight="700" text-anchor="middle">홈페이지 확인</text><rect x="1282" y="20" width="228" height="36" rx="9" fill="#ffffff" stroke="#dde2ea"/><text x="1332" y="43" fill="#657282" font-size="13" font-weight="650">빠른 이동</text><rect x="1522" y="20" width="36" height="36" rx="9" fill="#ffffff" stroke="#dde2ea"/>
  <rect x="276" y="96" width="1296" height="56" rx="14" fill="#ffffff" stroke="#dde2ea"/><circle cx="302" cy="124" r="7" fill="none" stroke="#9aa4b2" stroke-width="2"/><line x1="307" y1="129" x2="314" y2="136" stroke="#9aa4b2" stroke-width="2"/><text x="328" y="130" fill="#657282" font-size="14" font-weight="500">선생님, 강의실, 수업명 검색</text><rect x="1267" y="107" width="74" height="34" rx="10" fill="#ffffff" stroke="#dde2ea"/><text x="1282" y="129" fill="#111827" font-size="13" font-weight="650">이번주</text><rect x="1351" y="107" width="74" height="34" rx="10" fill="#ffffff" stroke="#dde2ea"/><text x="1366" y="129" fill="#111827" font-size="13" font-weight="650">본관</text><rect x="1435" y="107" width="74" height="34" rx="10" fill="#ffffff" stroke="#dde2ea"/><text x="1450" y="129" fill="#111827" font-size="13" font-weight="650">영어</text><rect x="276" y="178" width="1040" height="700" rx="18" fill="#ffffff" stroke="#dde2ea" filter="url(#shadow)"/><text x="390" y="214" fill="#657282" font-size="13" font-weight="800" text-anchor="middle">월</text><text x="550" y="214" fill="#657282" font-size="13" font-weight="800" text-anchor="middle">화</text><text x="710" y="214" fill="#657282" font-size="13" font-weight="800" text-anchor="middle">수</text><text x="870" y="214" fill="#657282" font-size="13" font-weight="800" text-anchor="middle">목</text><text x="1030" y="214" fill="#657282" font-size="13" font-weight="800" text-anchor="middle">금</text><text x="1190" y="214" fill="#657282" font-size="13" font-weight="800" text-anchor="middle">토</text><text x="300" y="262" fill="#9aa4b2" font-size="12" font-weight="700">14:00</text><line x1="352" y1="240" x2="1310" y2="240" stroke="#edf0f4" stroke-width="1"/><text x="300" y="336" fill="#9aa4b2" font-size="12" font-weight="700">15:00</text><line x1="352" y1="314" x2="1310" y2="314" stroke="#edf0f4" stroke-width="1"/><text x="300" y="410" fill="#9aa4b2" font-size="12" font-weight="700">16:00</text><line x1="352" y1="388" x2="1310" y2="388" stroke="#edf0f4" stroke-width="1"/><text x="300" y="484" fill="#9aa4b2" font-size="12" font-weight="700">17:00</text><line x1="352" y1="462" x2="1310" y2="462" stroke="#edf0f4" stroke-width="1"/><text x="300" y="558" fill="#9aa4b2" font-size="12" font-weight="700">18:00</text><line x1="352" y1="536" x2="1310" y2="536" stroke="#edf0f4" stroke-width="1"/><text x="300" y="632" fill="#9aa4b2" font-size="12" font-weight="700">19:00</text><line x1="352" y1="610" x2="1310" y2="610" stroke="#edf0f4" stroke-width="1"/><text x="300" y="706" fill="#9aa4b2" font-size="12" font-weight="700">20:00</text><line x1="352" y1="684" x2="1310" y2="684" stroke="#edf0f4" stroke-width="1"/><text x="300" y="780" fill="#9aa4b2" font-size="12" font-weight="700">21:00</text><line x1="352" y1="758" x2="1310" y2="758" stroke="#edf0f4" stroke-width="1"/><line x1="352" y1="196" x2="352" y2="832" stroke="#edf0f4" stroke-width="1"/><line x1="512" y1="196" x2="512" y2="832" stroke="#edf0f4" stroke-width="1"/><line x1="672" y1="196" x2="672" y2="832" stroke="#edf0f4" stroke-width="1"/><line x1="832" y1="196" x2="832" y2="832" stroke="#edf0f4" stroke-width="1"/><line x1="992" y1="196" x2="992" y2="832" stroke="#edf0f4" stroke-width="1"/><line x1="1152" y1="196" x2="1152" y2="832" stroke="#edf0f4" stroke-width="1"/><line x1="1312" y1="196" x2="1312" y2="832" stroke="#edf0f4" stroke-width="1"/><rect x="360" y="248" width="144" height="134" rx="16" fill="#0f766e18" stroke="#0f766e"/><text x="376" y="278" fill="#0f766e" font-size="14" font-weight="850">고1 공통수학</text><text x="376" y="302" fill="#657282" font-size="12" font-weight="650">강의실 · 선생님</text><rect x="520" y="322" width="144" height="134" rx="16" fill="#2563eb18" stroke="#2563eb"/><text x="536" y="352" fill="#2563eb" font-size="14" font-weight="850">고3 모고반</text><text x="536" y="376" fill="#657282" font-size="12" font-weight="650">강의실 · 선생님</text><rect x="680" y="248" width="144" height="134" rx="16" fill="#6d28d918" stroke="#6d28d9"/><text x="696" y="278" fill="#6d28d9" font-size="14" font-weight="850">중2 내신</text><text x="696" y="302" fill="#657282" font-size="12" font-weight="650">강의실 · 선생님</text><rect x="840" y="396" width="144" height="134" rx="16" fill="#b4530918" stroke="#b45309"/><text x="856" y="426" fill="#b45309" font-size="14" font-weight="850">고2 영어</text><text x="856" y="450" fill="#657282" font-size="12" font-weight="650">강의실 · 선생님</text><rect x="1000" y="322" width="144" height="134" rx="16" fill="#2563eb18" stroke="#2563eb"/><text x="1016" y="352" fill="#2563eb" font-size="14" font-weight="850">고1 영어</text><text x="1016" y="376" fill="#657282" font-size="12" font-weight="650">강의실 · 선생님</text><rect x="1160" y="248" width="144" height="208" rx="16" fill="#04785718" stroke="#047857"/><text x="1176" y="278" fill="#047857" font-size="14" font-weight="850">주말 특강</text><text x="1176" y="302" fill="#657282" font-size="12" font-weight="650">강의실 · 선생님</text><rect x="1346" y="178" width="226" height="700" rx="18" fill="#ffffff" stroke="#dde2ea" filter="url(#shadow)"/><text x="1374" y="218" fill="#111827" font-size="22" font-weight="850">충돌 점검</text><rect x="1374" y="258" width="166" height="48" rx="12" fill="#f4f6f8" stroke="#dde2ea"/><text x="1394" y="289" fill="#111827" font-size="14" font-weight="750">강의실 중복 없음</text><rect x="1374" y="322" width="166" height="48" rx="12" fill="#f4f6f8" stroke="#dde2ea"/><text x="1394" y="353" fill="#111827" font-size="14" font-weight="750">관리팀 제외됨</text><rect x="1374" y="386" width="166" height="48" rx="12" fill="#fef3c7" stroke="#dde2ea"/><text x="1394" y="417" fill="#b45309" font-size="14" font-weight="750">보강 후보 3건</text><rect x="1374" y="450" width="166" height="48" rx="12" fill="#f4f6f8" stroke="#dde2ea"/><text x="1394" y="481" fill="#111827" font-size="14" font-weight="750">빈 강의실 4칸</text>
</svg>