<?xml version="1.0" encoding="UTF-8"?>
<svg xmlns="http://www.w3.org/2000/svg" width="1600" height="960" viewBox="0 0 1600 960">
  <defs>
    <filter id="shadow" x="-20%" y="-20%" width="140%" height="140%">
      <feDropShadow dx="0" dy="12" stdDeviation="14" flood-color="#111827" flood-opacity="0.08"/>
    </filter>
    <linearGradient id="coolWash" x1="0" x2="1" y1="0" y2="1">
      <stop offset="0" stop-color="#f8fbff"/>
      <stop offset="1" stop-color="#f4f6f8"/>
    </linearGradient>
  </defs>
  <rect width="100%" height="100%" fill="#f7f8fb"/>
  <rect x="0" y="0" width="248" height="960" rx="0" fill="#fbfbfc" stroke="none"/><line x1="248" y1="0" x2="248" y2="960" stroke="#dde2ea" stroke-width="1"/><rect x="24" y="24" width="36" height="36" rx="10" fill="#ffffff" stroke="#dde2ea"/><text x="36" y="48" fill="#2563eb" font-size="18" font-weight="850">T</text><text x="72" y="38" fill="#111827" font-size="15" font-weight="800">TIPS Dashboard</text><text x="72" y="57" fill="#657282" font-size="12" font-weight="600">운영 포털</text><text x="24" y="98" fill="#9aa4b2" font-size="12" font-weight="800">운영</text><rect x="28" y="109" width="14" height="14" rx="4" fill="#dde2ea" stroke="none"/><text x="54" y="121" fill="#111827" font-size="14" font-weight="600">대시보드</text><rect x="28" y="149" width="14" height="14" rx="4" fill="#dde2ea" stroke="none"/><text x="54" y="161" fill="#111827" font-size="14" font-weight="600">학사일정</text><rect x="28" y="189" width="14" height="14" rx="4" fill="#dde2ea" stroke="none"/><text x="54" y="201" fill="#111827" font-size="14" font-weight="600">시간표</text><text x="24" y="258" fill="#9aa4b2" font-size="12" font-weight="800">관리</text><rect x="16" y="258" width="216" height="34" rx="10" fill="#eaf1ff" stroke="none"/><rect x="28" y="269" width="14" height="14" rx="4" fill="#2563eb" stroke="none"/><text x="54" y="281" fill="#2563eb" font-size="14" font-weight="800">수업계획</text><rect x="28" y="309" width="14" height="14" rx="4" fill="#dde2ea" stroke="none"/><text x="54" y="321" fill="#111827" font-size="14" font-weight="600">학생관리</text><rect x="28" y="349" width="14" height="14" rx="4" fill="#dde2ea" stroke="none"/><text x="54" y="361" fill="#111827" font-size="14" font-weight="600">수업관리</text><rect x="28" y="389" width="14" height="14" rx="4" fill="#dde2ea" stroke="none"/><text x="54" y="401" fill="#111827" font-size="14" font-weight="600">교재관리</text><text x="24" y="458" fill="#9aa4b2" font-size="12" font-weight="800">설정</text><rect x="28" y="469" width="14" height="14" rx="4" fill="#dde2ea" stroke="none"/><text x="54" y="481" fill="#111827" font-size="14" font-weight="600">환경설정</text><rect x="18" y="886" width="212" height="50" rx="14" fill="#ffffff" stroke="#dde2ea"/><text x="62" y="916" fill="#111827" font-size="14" font-weight="750">임현준</text><text x="62" y="933" fill="#657282" font-size="11" font-weight="500">yeoyuasset</text><rect x="32" y="902" width="24" height="24" rx="99" fill="#eaf1ff" stroke="none"/>
  <rect x="248" y="0" width="1352" height="68" rx="0" fill="#ffffff" stroke="none"/><line x1="248" y1="68" x2="1600" y2="68" stroke="#dde2ea" stroke-width="1"/><text x="276" y="43" fill="#657282" font-size="13" font-weight="650">관리</text><text x="321" y="43" fill="#9aa4b2" font-size="13" font-weight="500">/</text><text x="340" y="43" fill="#111827" font-size="18" font-weight="850">수업계획</text><rect x="1130" y="20" width="130" height="38" rx="10" fill="#ffffff" stroke="#dde2ea"/><text x="1195" y="44" fill="#111827" font-size="14" font-weight="700" text-anchor="middle">홈페이지 확인</text><rect x="1282" y="20" width="228" height="36" rx="9" fill="#ffffff" stroke="#dde2ea"/><text x="1332" y="43" fill="#657282" font-size="13" font-weight="650">빠른 이동</text><rect x="1522" y="20" width="36" height="36" rx="9" fill="#ffffff" stroke="#dde2ea"/>
  <rect x="276" y="96" width="1296" height="56" rx="14" fill="#ffffff" stroke="#dde2ea"/><circle cx="302" cy="124" r="7" fill="none" stroke="#9aa4b2" stroke-width="2"/><line x1="307" y1="129" x2="314" y2="136" stroke="#9aa4b2" stroke-width="2"/><text x="328" y="130" fill="#657282" font-size="14" font-weight="500">반명, 선생님, 교재 검색</text><rect x="1267" y="107" width="74" height="34" rx="10" fill="#ffffff" stroke="#dde2ea"/><text x="1282" y="129" fill="#111827" font-size="13" font-weight="650">학기</text><rect x="1351" y="107" width="74" height="34" rx="10" fill="#ffffff" stroke="#dde2ea"/><text x="1366" y="129" fill="#111827" font-size="13" font-weight="650">과목</text><rect x="1435" y="107" width="74" height="34" rx="10" fill="#ffffff" stroke="#dde2ea"/><text x="1450" y="129" fill="#111827" font-size="13" font-weight="650">상태</text><rect x="276" y="178" width="360" height="690" rx="18" fill="#ffffff" stroke="#dde2ea" filter="url(#shadow)"/><text x="300" y="216" fill="#111827" font-size="22" font-weight="850">반 목록</text><rect x="296" y="246" width="320" height="66" rx="14" fill="#eaf1ff" stroke="#2563eb"/><text x="314" y="276" fill="#111827" font-size="15" font-weight="800">고1 공통수학2</text><text x="314" y="298" fill="#b45309" font-size="12" font-weight="700">진도 미완료</text><rect x="296" y="328" width="320" height="66" rx="14" fill="#ffffff" stroke="#dde2ea"/><text x="314" y="358" fill="#111827" font-size="15" font-weight="800">고3 모고반</text><text x="314" y="380" fill="#0f766e" font-size="12" font-weight="700">일정 완료</text><rect x="296" y="410" width="320" height="66" rx="14" fill="#ffffff" stroke="#dde2ea"/><text x="314" y="440" fill="#111827" font-size="15" font-weight="800">중2 내신</text><text x="314" y="462" fill="#b45309" font-size="12" font-weight="700">진도 미완료</text><rect x="296" y="492" width="320" height="66" rx="14" fill="#ffffff" stroke="#dde2ea"/><text x="314" y="522" fill="#111827" font-size="15" font-weight="800">고1 영어 내신</text><text x="314" y="544" fill="#0f766e" font-size="12" font-weight="700">일정 완료</text><rect x="296" y="574" width="320" height="66" rx="14" fill="#ffffff" stroke="#dde2ea"/><text x="314" y="604" fill="#111827" font-size="15" font-weight="800">중3 특강</text><text x="314" y="626" fill="#b45309" font-size="12" font-weight="700">진도 미완료</text><rect x="664" y="178" width="908" height="690" rx="18" fill="#ffffff" stroke="#dde2ea" filter="url(#shadow)"/><text x="696" y="222" fill="#111827" font-size="24" font-weight="850">고1 공통수학2</text><rect x="1012" y="196" width="140" height="38" rx="10" fill="#2563eb" stroke="#2563eb"/><text x="1082" y="220" fill="#fff" font-size="14" font-weight="700" text-anchor="middle">수업설계 열기</text><rect x="696" y="264" width="828" height="228" rx="14" fill="#ffffff" stroke="#dde2ea"/><rect x="696" y="264" width="828" height="42" rx="14" fill="#fafbfc" stroke="none"/><line x1="696" y1="306" x2="1524" y2="306" stroke="#dde2ea" stroke-width="1"/><line x1="796" y1="264" x2="796" y2="492" stroke="#edf0f4" stroke-width="1"/><line x1="906" y1="264" x2="906" y2="492" stroke="#edf0f4" stroke-width="1"/><line x1="1206" y1="264" x2="1206" y2="492" stroke="#edf0f4" stroke-width="1"/><line x1="1566" y1="264" x2="1566" y2="492" stroke="#edf0f4" stroke-width="1"/><text x="708" y="291" fill="#657282" font-size="12" font-weight="700">월</text><text x="808" y="291" fill="#657282" font-size="12" font-weight="700">회차</text><text x="918" y="291" fill="#657282" font-size="12" font-weight="700">교재</text><text x="1218" y="291" fill="#657282" font-size="12" font-weight="700">진도</text><text x="1578" y="291" fill="#657282" font-size="12" font-weight="700">상태</text><rect x="696" y="306" width="828" height="62" rx="0" fill="#ffffff" stroke="#edf0f4"/><text x="708" y="342" fill="#111827" font-size="13" font-weight="550" text-anchor="start">5월</text><text x="808" y="342" fill="#111827" font-size="13" font-weight="550" text-anchor="start">8회</text><text x="918" y="342" fill="#111827" font-size="13" font-weight="550" text-anchor="start">고3 내신 기말</text><text x="1218" y="342" fill="#111827" font-size="13" font-weight="550" text-anchor="start">1단원-2단원 · 개념</text><text x="1578" y="342" fill="#b45309" font-size="13" font-weight="800" text-anchor="start">미배정 5</text><rect x="696" y="368" width="828" height="62" rx="0" fill="#fbfcfd" stroke="#edf0f4"/><text x="708" y="404" fill="#111827" font-size="13" font-weight="550" text-anchor="start">6월</text><text x="808" y="404" fill="#111827" font-size="13" font-weight="550" text-anchor="start">5회</text><text x="918" y="404" fill="#111827" font-size="13" font-weight="550" text-anchor="start">고3 내신 기말</text><text x="1218" y="404" fill="#111827" font-size="13" font-weight="550" text-anchor="start">3단원-4단원 · 실전</text><text x="1578" y="404" fill="#0f766e" font-size="13" font-weight="800" text-anchor="start">완료</text><rect x="696" y="430" width="828" height="62" rx="0" fill="#ffffff" stroke="#edf0f4"/><text x="708" y="466" fill="#111827" font-size="13" font-weight="550" text-anchor="start">7월</text><text x="808" y="466" fill="#111827" font-size="13" font-weight="550" text-anchor="start">8회</text><text x="918" y="466" fill="#111827" font-size="13" font-weight="550" text-anchor="start">모의고사 제본</text><text x="1218" y="466" fill="#111827" font-size="13" font-weight="550" text-anchor="start">회차 자동 생성</text><text x="1578" y="466" fill="#2563eb" font-size="13" font-weight="800" text-anchor="start">검토</text><rect x="696" y="526" width="828" height="230" rx="18" fill="url(#coolWash)" stroke="#dde2ea"/><text x="724" y="566" fill="#111827" font-size="18" font-weight="800">계획 완성도</text><rect x="724" y="598" width="772" height="16" rx="99" fill="#edf0f4" stroke="none"/><rect x="724" y="598" width="520" height="16" rx="99" fill="#2563eb" stroke="none"/><text x="724" y="646" fill="#111827" font-size="16" font-weight="750">일정 21회 · 진도 13/21 · 교재 2권</text>
</svg>