<?xml version="1.0" encoding="UTF-8"?>
<svg xmlns="http://www.w3.org/2000/svg" width="1600" height="960" viewBox="0 0 1600 960">
  <defs>
    <filter id="shadow" x="-20%" y="-20%" width="140%" height="140%">
      <feDropShadow dx="0" dy="12" stdDeviation="14" flood-color="#111827" flood-opacity="0.08"/>
    </filter>
    <linearGradient id="coolWash" x1="0" x2="1" y1="0" y2="1">
      <stop offset="0" stop-color="#f8fbff"/>
      <stop offset="1" stop-color="#f4f6f8"/>
    </linearGradient>
  </defs>
  <rect width="100%" height="100%" fill="#f7f8fb"/>
  <rect x="0" y="0" width="248" height="960" rx="0" fill="#fbfbfc" stroke="none"/><line x1="248" y1="0" x2="248" y2="960" stroke="#dde2ea" stroke-width="1"/><rect x="24" y="24" width="36" height="36" rx="10" fill="#ffffff" stroke="#dde2ea"/><text x="36" y="48" fill="#2563eb" font-size="18" font-weight="850">T</text><text x="72" y="38" fill="#111827" font-size="15" font-weight="800">TIPS Dashboard</text><text x="72" y="57" fill="#657282" font-size="12" font-weight="600">운영 포털</text><text x="24" y="98" fill="#9aa4b2" font-size="12" font-weight="800">운영</text><rect x="28" y="109" width="14" height="14" rx="4" fill="#dde2ea" stroke="none"/><text x="54" y="121" fill="#111827" font-size="14" font-weight="600">대시보드</text><rect x="28" y="149" width="14" height="14" rx="4" fill="#dde2ea" stroke="none"/><text x="54" y="161" fill="#111827" font-size="14" font-weight="600">학사일정</text><rect x="28" y="189" width="14" height="14" rx="4" fill="#dde2ea" stroke="none"/><text x="54" y="201" fill="#111827" font-size="14" font-weight="600">시간표</text><text x="24" y="258" fill="#9aa4b2" font-size="12" font-weight="800">관리</text><rect x="16" y="258" width="216" height="34" rx="10" fill="#eaf1ff" stroke="none"/><rect x="28" y="269" width="14" height="14" rx="4" fill="#2563eb" stroke="none"/><text x="54" y="281" fill="#2563eb" font-size="14" font-weight="800">수업계획</text><rect x="28" y="309" width="14" height="14" rx="4" fill="#dde2ea" stroke="none"/><text x="54" y="321" fill="#111827" font-size="14" font-weight="600">학생관리</text><rect x="28" y="349" width="14" height="14" rx="4" fill="#dde2ea" stroke="none"/><text x="54" y="361" fill="#111827" font-size="14" font-weight="600">수업관리</text><rect x="28" y="389" width="14" height="14" rx="4" fill="#dde2ea" stroke="none"/><text x="54" y="401" fill="#111827" font-size="14" font-weight="600">교재관리</text><text x="24" y="458" fill="#9aa4b2" font-size="12" font-weight="800">설정</text><rect x="28" y="469" width="14" height="14" rx="4" fill="#dde2ea" stroke="none"/><text x="54" y="481" fill="#111827" font-size="14" font-weight="600">환경설정</text><rect x="18" y="886" width="212" height="50" rx="14" fill="#ffffff" stroke="#dde2ea"/><text x="62" y="916" fill="#111827" font-size="14" font-weight="750">임현준</text><text x="62" y="933" fill="#657282" font-size="11" font-weight="500">yeoyuasset</text><rect x="32" y="902" width="24" height="24" rx="99" fill="#eaf1ff" stroke="none"/>
  <rect x="248" y="0" width="1352" height="68" rx="0" fill="#ffffff" stroke="none"/><line x1="248" y1="68" x2="1600" y2="68" stroke="#dde2ea" stroke-width="1"/><text x="276" y="43" fill="#657282" font-size="13" font-weight="650">수업계획</text><text x="321" y="43" fill="#9aa4b2" font-size="13" font-weight="500">/</text><text x="340" y="43" fill="#111827" font-size="18" font-weight="850">수업설계</text><rect x="1130" y="20" width="130" height="38" rx="10" fill="#ffffff" stroke="#dde2ea"/><text x="1195" y="44" fill="#111827" font-size="14" font-weight="700" text-anchor="middle">홈페이지 확인</text><rect x="1282" y="20" width="228" height="36" rx="9" fill="#ffffff" stroke="#dde2ea"/><text x="1332" y="43" fill="#657282" font-size="13" font-weight="650">빠른 이동</text><rect x="1522" y="20" width="36" height="36" rx="9" fill="#ffffff" stroke="#dde2ea"/>
  <rect x="276" y="96" width="1296" height="62" rx="14" fill="#ffffff" stroke="#dde2ea"/><rect x="290" y="109" width="92" height="34" rx="10" fill="#2563eb" stroke="#2563eb"/><text x="305" y="131" fill="#fff" font-size="13" font-weight="650">일정 생성</text><rect x="392" y="109" width="92" height="34" rx="10" fill="#ffffff" stroke="#dde2ea"/><text x="407" y="131" fill="#111827" font-size="13" font-weight="650">진도 생성</text><rect x="1440" y="108" width="110" height="38" rx="10" fill="#2563eb" stroke="#2563eb"/><text x="1495" y="132" fill="#fff" font-size="14" font-weight="700" text-anchor="middle">저장</text><rect x="276" y="184" width="486" height="690" rx="18" fill="#ffffff" stroke="#dde2ea" filter="url(#shadow)"/><text x="300" y="224" fill="#111827" font-size="22" font-weight="850">회차 목록</text><rect x="300" y="244" width="78" height="34" rx="10" fill="#2563eb" stroke="#2563eb"/><text x="315" y="266" fill="#fff" font-size="13" font-weight="650">5월 8회</text><rect x="388" y="244" width="78" height="34" rx="10" fill="#ffffff" stroke="#dde2ea"/><text x="403" y="266" fill="#111827" font-size="13" font-weight="650">6월 5회</text><rect x="476" y="244" width="78" height="34" rx="10" fill="#ffffff" stroke="#dde2ea"/><text x="491" y="266" fill="#111827" font-size="13" font-weight="650">7월 8회</text><rect x="300" y="294" width="438" height="54" rx="14" fill="#ffffff" stroke="#edf0f4"/><text x="320" y="326" fill="#111827" font-size="15" font-weight="800">1회차</text><text x="394" y="326" fill="#657282" font-size="12" font-weight="650">2026.05.04</text><rect x="654" y="305" width="70" height="34" rx="10" fill="#fef3c7" stroke="#b45309"/><text x="669" y="327" fill="#b45309" font-size="13" font-weight="650">0/2권</text><rect x="300" y="358" width="438" height="54" rx="14" fill="#eaf1ff" stroke="#2563eb"/><text x="320" y="390" fill="#111827" font-size="15" font-weight="800">2회차</text><text x="394" y="390" fill="#657282" font-size="12" font-weight="650">2026.05.05</text><rect x="654" y="369" width="70" height="34" rx="10" fill="#fef3c7" stroke="#b45309"/><text x="669" y="391" fill="#b45309" font-size="13" font-weight="650">0/2권</text><rect x="300" y="422" width="438" height="54" rx="14" fill="#ffffff" stroke="#edf0f4"/><text x="320" y="454" fill="#111827" font-size="15" font-weight="800">3회차</text><text x="394" y="454" fill="#657282" font-size="12" font-weight="650">2026.05.06</text><rect x="654" y="433" width="70" height="34" rx="10" fill="#fef3c7" stroke="#b45309"/><text x="669" y="455" fill="#b45309" font-size="13" font-weight="650">0/2권</text><rect x="300" y="486" width="438" height="54" rx="14" fill="#ffffff" stroke="#edf0f4"/><text x="320" y="518" fill="#111827" font-size="15" font-weight="800">4회차</text><text x="394" y="518" fill="#657282" font-size="12" font-weight="650">2026.05.07</text><rect x="654" y="497" width="70" height="34" rx="10" fill="#dff7f4" stroke="#0f766e"/><text x="669" y="519" fill="#0f766e" font-size="13" font-weight="650">2/2권</text><rect x="300" y="550" width="438" height="54" rx="14" fill="#ffffff" stroke="#edf0f4"/><text x="320" y="582" fill="#111827" font-size="15" font-weight="800">5회차</text><text x="394" y="582" fill="#657282" font-size="12" font-weight="650">2026.05.08</text><rect x="654" y="561" width="70" height="34" rx="10" fill="#dff7f4" stroke="#0f766e"/><text x="669" y="583" fill="#0f766e" font-size="13" font-weight="650">2/2권</text><rect x="300" y="614" width="438" height="54" rx="14" fill="#ffffff" stroke="#edf0f4"/><text x="320" y="646" fill="#111827" font-size="15" font-weight="800">6회차</text><text x="394" y="646" fill="#657282" font-size="12" font-weight="650">2026.05.09</text><rect x="654" y="625" width="70" height="34" rx="10" fill="#dff7f4" stroke="#0f766e"/><text x="669" y="647" fill="#0f766e" font-size="13" font-weight="650">2/2권</text><rect x="300" y="678" width="438" height="54" rx="14" fill="#ffffff" stroke="#edf0f4"/><text x="320" y="710" fill="#111827" font-size="15" font-weight="800">7회차</text><text x="394" y="710" fill="#657282" font-size="12" font-weight="650">2026.05.10</text><rect x="654" y="689" width="70" height="34" rx="10" fill="#dff7f4" stroke="#0f766e"/><text x="669" y="711" fill="#0f766e" font-size="13" font-weight="650">2/2권</text><rect x="300" y="742" width="438" height="54" rx="14" fill="#ffffff" stroke="#edf0f4"/><text x="320" y="774" fill="#111827" font-size="15" font-weight="800">8회차</text><text x="394" y="774" fill="#657282" font-size="12" font-weight="650">2026.05.11</text><rect x="654" y="753" width="70" height="34" rx="10" fill="#dff7f4" stroke="#0f766e"/><text x="669" y="775" fill="#0f766e" font-size="13" font-weight="650">2/2권</text><rect x="794" y="184" width="778" height="690" rx="18" fill="#ffffff" stroke="#dde2ea" filter="url(#shadow)"/><text x="822" y="228" fill="#111827" font-size="24" font-weight="850">2회차 진도</text><rect x="1250" y="202" width="76" height="38" rx="10" fill="#ffffff" stroke="#dde2ea"/><text x="1288" y="226" fill="#111827" font-size="14" font-weight="700" text-anchor="middle">이전</text><rect x="1338" y="202" width="76" height="38" rx="10" fill="#ffffff" stroke="#dde2ea"/><text x="1376" y="226" fill="#111827" font-size="14" font-weight="700" text-anchor="middle">다음</text><rect x="822" y="268" width="722" height="138" rx="18" fill="#eaf1ff" stroke="#2563eb"/><text x="850" y="306" fill="#111827" font-size="18" font-weight="850">고3 내신 기말</text><text x="850" y="332" fill="#2563eb" font-size="13" font-weight="750">주교재 · 4회차부터 8회차까지 사용</text><rect x="850" y="352" width="90" height="34" rx="10" fill="#ffffff" stroke="#dde2ea"/><text x="865" y="374" fill="#111827" font-size="13" font-weight="650">1단원</text><rect x="948" y="352" width="90" height="34" rx="10" fill="#ffffff" stroke="#dde2ea"/><text x="963" y="374" fill="#111827" font-size="13" font-weight="650">2단원</text><rect x="1046" y="352" width="86" height="34" rx="10" fill="#ffffff" stroke="#dde2ea"/><text x="1061" y="374" fill="#111827" font-size="13" font-weight="650">개념</text><rect x="822" y="440" width="722" height="228" rx="14" fill="#ffffff" stroke="#dde2ea"/><rect x="822" y="440" width="722" height="42" rx="14" fill="#fafbfc" stroke="none"/><line x1="822" y1="482" x2="1544" y2="482" stroke="#dde2ea" stroke-width="1"/><line x1="1092" y1="440" x2="1092" y2="668" stroke="#edf0f4" stroke-width="1"/><line x1="1212" y1="440" x2="1212" y2="668" stroke="#edf0f4" stroke-width="1"/><line x1="1332" y1="440" x2="1332" y2="668" stroke="#edf0f4" stroke-width="1"/><line x1="1582" y1="440" x2="1582" y2="668" stroke="#edf0f4" stroke-width="1"/><text x="834" y="467" fill="#657282" font-size="12" font-weight="700">교재</text><text x="1104" y="467" fill="#657282" font-size="12" font-weight="700">시작</text><text x="1224" y="467" fill="#657282" font-size="12" font-weight="700">종료</text><text x="1344" y="467" fill="#657282" font-size="12" font-weight="700">이번 회차</text><text x="1594" y="467" fill="#657282" font-size="12" font-weight="700">상태</text><rect x="822" y="482" width="722" height="62" rx="0" fill="#ffffff" stroke="#edf0f4"/><text x="834" y="518" fill="#111827" font-size="13" font-weight="550" text-anchor="start">고3 내신 기말</text><text x="1104" y="518" fill="#111827" font-size="13" font-weight="550" text-anchor="start">4회차</text><text x="1224" y="518" fill="#111827" font-size="13" font-weight="550" text-anchor="start">8회차</text><text x="1344" y="518" fill="#111827" font-size="13" font-weight="550" text-anchor="start">1단원-2단원 · 개념</text><text x="1594" y="518" fill="#2563eb" font-size="13" font-weight="800" text-anchor="start">입력</text><rect x="822" y="544" width="722" height="62" rx="0" fill="#fbfcfd" stroke="#edf0f4"/><text x="834" y="580" fill="#111827" font-size="13" font-weight="550" text-anchor="start">모의고사 제본</text><text x="1104" y="580" fill="#111827" font-size="13" font-weight="550" text-anchor="start">6회차</text><text x="1224" y="580" fill="#111827" font-size="13" font-weight="550" text-anchor="start">13회차</text><text x="1344" y="580" fill="#111827" font-size="13" font-weight="550" text-anchor="start">기간 밖</text><text x="1594" y="580" fill="#657282" font-size="13" font-weight="800" text-anchor="start">대기</text><rect x="822" y="606" width="722" height="62" rx="0" fill="#ffffff" stroke="#edf0f4"/><text x="834" y="642" fill="#111827" font-size="13" font-weight="550" text-anchor="start">부교재 프린트</text><text x="1104" y="642" fill="#111827" font-size="13" font-weight="550" text-anchor="start">1회차</text><text x="1224" y="642" fill="#111827" font-size="13" font-weight="550" text-anchor="start">전체</text><text x="1344" y="642" fill="#111827" font-size="13" font-weight="550" text-anchor="start">숙제 범위</text><text x="1594" y="642" fill="#0f766e" font-size="13" font-weight="800" text-anchor="start">완료</text>
</svg>