<?xml version="1.0" encoding="UTF-8"?>
<svg xmlns="http://www.w3.org/2000/svg" width="1600" height="960" viewBox="0 0 1600 960">
  <defs>
    <filter id="shadow" x="-20%" y="-20%" width="140%" height="140%">
      <feDropShadow dx="0" dy="12" stdDeviation="14" flood-color="#111827" flood-opacity="0.08"/>
    </filter>
    <linearGradient id="coolWash" x1="0" x2="1" y1="0" y2="1">
      <stop offset="0" stop-color="#f8fbff"/>
      <stop offset="1" stop-color="#f4f6f8"/>
    </linearGradient>
  </defs>
  <rect width="100%" height="100%" fill="#f7f8fb"/>
  <rect x="0" y="0" width="248" height="960" rx="0" fill="#fbfbfc" stroke="none"/><line x1="248" y1="0" x2="248" y2="960" stroke="#dde2ea" stroke-width="1"/><rect x="24" y="24" width="36" height="36" rx="10" fill="#ffffff" stroke="#dde2ea"/><text x="36" y="48" fill="#2563eb" font-size="18" font-weight="850">T</text><text x="72" y="38" fill="#111827" font-size="15" font-weight="800">TIPS Dashboard</text><text x="72" y="57" fill="#657282" font-size="12" font-weight="600">운영 포털</text><text x="24" y="98" fill="#9aa4b2" font-size="12" font-weight="800">운영</text><rect x="28" y="109" width="14" height="14" rx="4" fill="#dde2ea" stroke="none"/><text x="54" y="121" fill="#111827" font-size="14" font-weight="600">대시보드</text><rect x="28" y="149" width="14" height="14" rx="4" fill="#dde2ea" stroke="none"/><text x="54" y="161" fill="#111827" font-size="14" font-weight="600">학사일정</text><rect x="28" y="189" width="14" height="14" rx="4" fill="#dde2ea" stroke="none"/><text x="54" y="201" fill="#111827" font-size="14" font-weight="600">시간표</text><text x="24" y="258" fill="#9aa4b2" font-size="12" font-weight="800">관리</text><rect x="28" y="269" width="14" height="14" rx="4" fill="#dde2ea" stroke="none"/><text x="54" y="281" fill="#111827" font-size="14" font-weight="600">수업계획</text><rect x="16" y="298" width="216" height="34" rx="10" fill="#eaf1ff" stroke="none"/><rect x="28" y="309" width="14" height="14" rx="4" fill="#2563eb" stroke="none"/><text x="54" y="321" fill="#2563eb" font-size="14" font-weight="800">학생관리</text><rect x="28" y="349" width="14" height="14" rx="4" fill="#dde2ea" stroke="none"/><text x="54" y="361" fill="#111827" font-size="14" font-weight="600">수업관리</text><rect x="28" y="389" width="14" height="14" rx="4" fill="#dde2ea" stroke="none"/><text x="54" y="401" fill="#111827" font-size="14" font-weight="600">교재관리</text><text x="24" y="458" fill="#9aa4b2" font-size="12" font-weight="800">설정</text><rect x="28" y="469" width="14" height="14" rx="4" fill="#dde2ea" stroke="none"/><text x="54" y="481" fill="#111827" font-size="14" font-weight="600">환경설정</text><rect x="18" y="886" width="212" height="50" rx="14" fill="#ffffff" stroke="#dde2ea"/><text x="62" y="916" fill="#111827" font-size="14" font-weight="750">임현준</text><text x="62" y="933" fill="#657282" font-size="11" font-weight="500">yeoyuasset</text><rect x="32" y="902" width="24" height="24" rx="99" fill="#eaf1ff" stroke="none"/>
  <rect x="248" y="0" width="1352" height="68" rx="0" fill="#ffffff" stroke="none"/><line x1="248" y1="68" x2="1600" y2="68" stroke="#dde2ea" stroke-width="1"/><text x="276" y="43" fill="#657282" font-size="13" font-weight="650">관리</text><text x="321" y="43" fill="#9aa4b2" font-size="13" font-weight="500">/</text><text x="340" y="43" fill="#111827" font-size="18" font-weight="850">학생관리</text><rect x="1130" y="20" width="130" height="38" rx="10" fill="#ffffff" stroke="#dde2ea"/><text x="1195" y="44" fill="#111827" font-size="14" font-weight="700" text-anchor="middle">홈페이지 확인</text><rect x="1282" y="20" width="228" height="36" rx="9" fill="#ffffff" stroke="#dde2ea"/><text x="1332" y="43" fill="#657282" font-size="13" font-weight="650">빠른 이동</text><rect x="1522" y="20" width="36" height="36" rx="9" fill="#ffffff" stroke="#dde2ea"/>
  <rect x="276" y="96" width="1296" height="56" rx="14" fill="#ffffff" stroke="#dde2ea"/><circle cx="302" cy="124" r="7" fill="none" stroke="#9aa4b2" stroke-width="2"/><line x1="307" y1="129" x2="314" y2="136" stroke="#9aa4b2" stroke-width="2"/><text x="328" y="130" fill="#657282" font-size="14" font-weight="500">학생명, 학교, 연락처 검색</text><rect x="1267" y="107" width="74" height="34" rx="10" fill="#ffffff" stroke="#dde2ea"/><text x="1282" y="129" fill="#111827" font-size="13" font-weight="650">재원</text><rect x="1351" y="107" width="74" height="34" rx="10" fill="#ffffff" stroke="#dde2ea"/><text x="1366" y="129" fill="#111827" font-size="13" font-weight="650">학년</text><rect x="1435" y="107" width="74" height="34" rx="10" fill="#ffffff" stroke="#dde2ea"/><text x="1450" y="129" fill="#111827" font-size="13" font-weight="650">수업</text><rect x="276" y="178" width="850" height="710" rx="18" fill="#ffffff" stroke="#dde2ea" filter="url(#shadow)"/><rect x="296" y="202" width="810" height="306" rx="14" fill="#ffffff" stroke="#dde2ea"/><rect x="296" y="202" width="810" height="42" rx="14" fill="#fafbfc" stroke="none"/><line x1="296" y1="244" x2="1106" y2="244" stroke="#dde2ea" stroke-width="1"/><line x1="386" y1="202" x2="386" y2="508" stroke="#edf0f4" stroke-width="1"/><line x1="556" y1="202" x2="556" y2="508" stroke="#edf0f4" stroke-width="1"/><line x1="726" y1="202" x2="726" y2="508" stroke="#edf0f4" stroke-width="1"/><line x1="946" y1="202" x2="946" y2="508" stroke="#edf0f4" stroke-width="1"/><line x1="1056" y1="202" x2="1056" y2="508" stroke="#edf0f4" stroke-width="1"/><text x="308" y="229" fill="#657282" font-size="12" font-weight="700">상태</text><text x="398" y="229" fill="#657282" font-size="12" font-weight="700">학생</text><text x="568" y="229" fill="#657282" font-size="12" font-weight="700">학교</text><text x="738" y="229" fill="#657282" font-size="12" font-weight="700">수업</text><text x="958" y="229" fill="#657282" font-size="12" font-weight="700">교재</text><text x="1068" y="229" fill="#657282" font-size="12" font-weight="700">최근 이력</text><rect x="296" y="244" width="810" height="66" rx="0" fill="#ffffff" stroke="#edf0f4"/><text x="308" y="282" fill="#0f766e" font-size="13" font-weight="800" text-anchor="start">재원</text><text x="398" y="282" fill="#111827" font-size="13" font-weight="550" text-anchor="start">조준혁</text><text x="568" y="282" fill="#111827" font-size="13" font-weight="550" text-anchor="start">고3</text><text x="738" y="282" fill="#111827" font-size="13" font-weight="550" text-anchor="start">고3 모고반</text><text x="958" y="282" fill="#111827" font-size="13" font-weight="550" text-anchor="start">2권</text><text x="1068" y="282" fill="#111827" font-size="13" font-weight="550" text-anchor="start">출고 5/5</text><rect x="296" y="310" width="810" height="66" rx="0" fill="#fbfcfd" stroke="#edf0f4"/><text x="308" y="348" fill="#0f766e" font-size="13" font-weight="800" text-anchor="start">재원</text><text x="398" y="348" fill="#111827" font-size="13" font-weight="550" text-anchor="start">차예은</text><text x="568" y="348" fill="#111827" font-size="13" font-weight="550" text-anchor="start">고3</text><text x="738" y="348" fill="#111827" font-size="13" font-weight="550" text-anchor="start">고3 모고반</text><text x="958" y="348" fill="#111827" font-size="13" font-weight="550" text-anchor="start">2권</text><text x="1068" y="348" fill="#111827" font-size="13" font-weight="550" text-anchor="start">수강 등록</text><rect x="296" y="376" width="810" height="66" rx="0" fill="#ffffff" stroke="#edf0f4"/><text x="308" y="414" fill="#657282" font-size="13" font-weight="800" text-anchor="start">퇴원</text><text x="398" y="414" fill="#111827" font-size="13" font-weight="550" text-anchor="start">이은석</text><text x="568" y="414" fill="#111827" font-size="13" font-weight="550" text-anchor="start">고2</text><text x="738" y="414" fill="#111827" font-size="13" font-weight="550" text-anchor="start">이전 수업</text><text x="958" y="414" fill="#111827" font-size="13" font-weight="550" text-anchor="start">4권</text><text x="1068" y="414" fill="#111827" font-size="13" font-weight="550" text-anchor="start">퇴원 4/30</text><rect x="296" y="442" width="810" height="66" rx="0" fill="#fbfcfd" stroke="#edf0f4"/><text x="308" y="480" fill="#0f766e" font-size="13" font-weight="800" text-anchor="start">재원</text><text x="398" y="480" fill="#111827" font-size="13" font-weight="550" text-anchor="start">전재원</text><text x="568" y="480" fill="#111827" font-size="13" font-weight="550" text-anchor="start">중3</text><text x="738" y="480" fill="#111827" font-size="13" font-weight="550" text-anchor="start">중3 내신</text><text x="958" y="480" fill="#111827" font-size="13" font-weight="550" text-anchor="start">1권</text><text x="1068" y="480" fill="#111827" font-size="13" font-weight="550" text-anchor="start">교재 반품</text><rect x="1154" y="178" width="418" height="710" rx="18" fill="#ffffff" stroke="#dde2ea" filter="url(#shadow)"/><text x="1186" y="222" fill="#111827" font-size="24" font-weight="850">학생 상세</text><text x="1186" y="254" fill="#657282" font-size="14" font-weight="650">조준혁 · 재원</text><circle cx="1200" cy="312" r="4" fill="#2563eb"/><line x1="1200" y1="320" x2="1200" y2="378" stroke="#dde2ea" stroke-width="1"/><text x="1226" y="318" fill="#111827" font-size="15" font-weight="760">수강 등록 · 고3 모고반</text><text x="1226" y="340" fill="#657282" font-size="12" font-weight="600">학생-수업-교재 이력</text><circle cx="1200" cy="386" r="4" fill="#2563eb"/><line x1="1200" y1="394" x2="1200" y2="452" stroke="#dde2ea" stroke-width="1"/><text x="1226" y="392" fill="#111827" font-size="15" font-weight="760">교재 출고 · 테스트</text><text x="1226" y="414" fill="#657282" font-size="12" font-weight="600">학생-수업-교재 이력</text><circle cx="1200" cy="460" r="4" fill="#dde2ea"/><line x1="1200" y1="468" x2="1200" y2="526" stroke="#dde2ea" stroke-width="1"/><text x="1226" y="466" fill="#111827" font-size="15" font-weight="760">진도 배정 · 2회차</text><text x="1226" y="488" fill="#657282" font-size="12" font-weight="600">학생-수업-교재 이력</text><circle cx="1200" cy="534" r="4" fill="#dde2ea"/><line x1="1200" y1="542" x2="1200" y2="600" stroke="#dde2ea" stroke-width="1"/><text x="1226" y="540" fill="#111827" font-size="15" font-weight="760">상태 유지 · 재원</text><text x="1226" y="562" fill="#657282" font-size="12" font-weight="600">학생-수업-교재 이력</text>
</svg>