<?xml version="1.0" encoding="UTF-8"?>
<svg xmlns="http://www.w3.org/2000/svg" width="1600" height="960" viewBox="0 0 1600 960">
  <defs>
    <filter id="shadow" x="-20%" y="-20%" width="140%" height="140%">
      <feDropShadow dx="0" dy="12" stdDeviation="14" flood-color="#111827" flood-opacity="0.08"/>
    </filter>
    <linearGradient id="coolWash" x1="0" x2="1" y1="0" y2="1">
      <stop offset="0" stop-color="#f8fbff"/>
      <stop offset="1" stop-color="#f4f6f8"/>
    </linearGradient>
  </defs>
  <rect width="100%" height="100%" fill="#f7f8fb"/>
  <rect x="0" y="0" width="248" height="960" rx="0" fill="#fbfbfc" stroke="none"/><line x1="248" y1="0" x2="248" y2="960" stroke="#dde2ea" stroke-width="1"/><rect x="24" y="24" width="36" height="36" rx="10" fill="#ffffff" stroke="#dde2ea"/><text x="36" y="48" fill="#2563eb" font-size="18" font-weight="850">T</text><text x="72" y="38" fill="#111827" font-size="15" font-weight="800">TIPS Dashboard</text><text x="72" y="57" fill="#657282" font-size="12" font-weight="600">운영 포털</text><text x="24" y="98" fill="#9aa4b2" font-size="12" font-weight="800">운영</text><rect x="28" y="109" width="14" height="14" rx="4" fill="#dde2ea" stroke="none"/><text x="54" y="121" fill="#111827" font-size="14" font-weight="600">대시보드</text><rect x="28" y="149" width="14" height="14" rx="4" fill="#dde2ea" stroke="none"/><text x="54" y="161" fill="#111827" font-size="14" font-weight="600">학사일정</text><rect x="28" y="189" width="14" height="14" rx="4" fill="#dde2ea" stroke="none"/><text x="54" y="201" fill="#111827" font-size="14" font-weight="600">시간표</text><text x="24" y="258" fill="#9aa4b2" font-size="12" font-weight="800">관리</text><rect x="28" y="269" width="14" height="14" rx="4" fill="#dde2ea" stroke="none"/><text x="54" y="281" fill="#111827" font-size="14" font-weight="600">수업계획</text><rect x="28" y="309" width="14" height="14" rx="4" fill="#dde2ea" stroke="none"/><text x="54" y="321" fill="#111827" font-size="14" font-weight="600">학생관리</text><rect x="16" y="338" width="216" height="34" rx="10" fill="#eaf1ff" stroke="none"/><rect x="28" y="349" width="14" height="14" rx="4" fill="#2563eb" stroke="none"/><text x="54" y="361" fill="#2563eb" font-size="14" font-weight="800">수업관리</text><rect x="28" y="389" width="14" height="14" rx="4" fill="#dde2ea" stroke="none"/><text x="54" y="401" fill="#111827" font-size="14" font-weight="600">교재관리</text><text x="24" y="458" fill="#9aa4b2" font-size="12" font-weight="800">설정</text><rect x="28" y="469" width="14" height="14" rx="4" fill="#dde2ea" stroke="none"/><text x="54" y="481" fill="#111827" font-size="14" font-weight="600">환경설정</text><rect x="18" y="886" width="212" height="50" rx="14" fill="#ffffff" stroke="#dde2ea"/><text x="62" y="916" fill="#111827" font-size="14" font-weight="750">임현준</text><text x="62" y="933" fill="#657282" font-size="11" font-weight="500">yeoyuasset</text><rect x="32" y="902" width="24" height="24" rx="99" fill="#eaf1ff" stroke="none"/>
  <rect x="248" y="0" width="1352" height="68" rx="0" fill="#ffffff" stroke="none"/><line x1="248" y1="68" x2="1600" y2="68" stroke="#dde2ea" stroke-width="1"/><text x="276" y="43" fill="#657282" font-size="13" font-weight="650">관리</text><text x="321" y="43" fill="#9aa4b2" font-size="13" font-weight="500">/</text><text x="340" y="43" fill="#111827" font-size="18" font-weight="850">수업관리</text><rect x="1130" y="20" width="130" height="38" rx="10" fill="#ffffff" stroke="#dde2ea"/><text x="1195" y="44" fill="#111827" font-size="14" font-weight="700" text-anchor="middle">홈페이지 확인</text><rect x="1282" y="20" width="228" height="36" rx="9" fill="#ffffff" stroke="#dde2ea"/><text x="1332" y="43" fill="#657282" font-size="13" font-weight="650">빠른 이동</text><rect x="1522" y="20" width="36" height="36" rx="9" fill="#ffffff" stroke="#dde2ea"/>
  <rect x="276" y="96" width="1296" height="62" rx="14" fill="#ffffff" stroke="#dde2ea"/><rect x="290" y="109" width="92" height="34" rx="10" fill="#2563eb" stroke="#2563eb"/><text x="305" y="131" fill="#fff" font-size="13" font-weight="650">수강</text><rect x="392" y="109" width="92" height="34" rx="10" fill="#ffffff" stroke="#dde2ea"/><text x="407" y="131" fill="#111827" font-size="13" font-weight="650">개강 준비</text><rect x="494" y="109" width="92" height="34" rx="10" fill="#ffffff" stroke="#dde2ea"/><text x="509" y="131" fill="#111827" font-size="13" font-weight="650">종강</text><rect x="1440" y="108" width="110" height="38" rx="10" fill="#2563eb" stroke="#2563eb"/><text x="1495" y="132" fill="#fff" font-size="14" font-weight="700" text-anchor="middle">수업 추가</text><rect x="276" y="172" width="1296" height="56" rx="14" fill="#ffffff" stroke="#dde2ea"/><circle cx="302" cy="200" r="7" fill="none" stroke="#9aa4b2" stroke-width="2"/><line x1="307" y1="205" x2="314" y2="212" stroke="#9aa4b2" stroke-width="2"/><text x="328" y="206" fill="#657282" font-size="14" font-weight="500">수업명, 선생님, 교재 검색</text><rect x="1267" y="183" width="74" height="34" rx="10" fill="#ffffff" stroke="#dde2ea"/><text x="1282" y="205" fill="#111827" font-size="13" font-weight="650">과목</text><rect x="1351" y="183" width="74" height="34" rx="10" fill="#ffffff" stroke="#dde2ea"/><text x="1366" y="205" fill="#111827" font-size="13" font-weight="650">기간</text><rect x="1435" y="183" width="74" height="34" rx="10" fill="#ffffff" stroke="#dde2ea"/><text x="1450" y="205" fill="#111827" font-size="13" font-weight="650">강의실</text><rect x="276" y="248" width="1296" height="620" rx="18" fill="#ffffff" stroke="#dde2ea" filter="url(#shadow)"/><rect x="296" y="274" width="1256" height="306" rx="14" fill="#ffffff" stroke="#dde2ea"/><rect x="296" y="274" width="1256" height="42" rx="14" fill="#fafbfc" stroke="none"/><line x1="296" y1="316" x2="1552" y2="316" stroke="#dde2ea" stroke-width="1"/><line x1="396" y1="274" x2="396" y2="580" stroke="#edf0f4" stroke-width="1"/><line x1="646" y1="274" x2="646" y2="580" stroke="#edf0f4" stroke-width="1"/><line x1="806" y1="274" x2="806" y2="580" stroke="#edf0f4" stroke-width="1"/><line x1="1036" y1="274" x2="1036" y2="580" stroke="#edf0f4" stroke-width="1"/><line x1="1156" y1="274" x2="1156" y2="580" stroke="#edf0f4" stroke-width="1"/><line x1="1396" y1="274" x2="1396" y2="580" stroke="#edf0f4" stroke-width="1"/><text x="308" y="301" fill="#657282" font-size="12" font-weight="700">상태</text><text x="408" y="301" fill="#657282" font-size="12" font-weight="700">수업</text><text x="658" y="301" fill="#657282" font-size="12" font-weight="700">선생님</text><text x="818" y="301" fill="#657282" font-size="12" font-weight="700">시간</text><text x="1048" y="301" fill="#657282" font-size="12" font-weight="700">학생</text><text x="1168" y="301" fill="#657282" font-size="12" font-weight="700">교재</text><text x="1408" y="301" fill="#657282" font-size="12" font-weight="700">다음 행동</text><rect x="296" y="316" width="1256" height="66" rx="0" fill="#ffffff" stroke="#edf0f4"/><text x="308" y="354" fill="#0f766e" font-size="13" font-weight="800" text-anchor="start">수강</text><text x="408" y="354" fill="#111827" font-size="13" font-weight="550" text-anchor="start">고3 모고반</text><text x="658" y="354" fill="#111827" font-size="13" font-weight="550" text-anchor="start">강부희</text><text x="818" y="354" fill="#111827" font-size="13" font-weight="550" text-anchor="start">월화 18:00-20:00</text><text x="1144" y="354" fill="#111827" font-size="13" font-weight="550" text-anchor="end">5명</text><text x="1168" y="354" fill="#111827" font-size="13" font-weight="550" text-anchor="start">고3 내신 기말</text><text x="1408" y="354" fill="#111827" font-size="13" font-weight="550" text-anchor="start">진도 배정</text><rect x="296" y="382" width="1256" height="66" rx="0" fill="#fbfcfd" stroke="#edf0f4"/><text x="308" y="420" fill="#0f766e" font-size="13" font-weight="800" text-anchor="start">수강</text><text x="408" y="420" fill="#111827" font-size="13" font-weight="550" text-anchor="start">고1 공통수학2</text><text x="658" y="420" fill="#111827" font-size="13" font-weight="550" text-anchor="start">양소윤</text><text x="818" y="420" fill="#111827" font-size="13" font-weight="550" text-anchor="start">금토 15:30-17:00</text><text x="1144" y="420" fill="#111827" font-size="13" font-weight="550" text-anchor="end">7명</text><text x="1168" y="420" fill="#111827" font-size="13" font-weight="550" text-anchor="start">공통수학2 2권</text><text x="1408" y="420" fill="#111827" font-size="13" font-weight="550" text-anchor="start">일정 확인</text><rect x="296" y="448" width="1256" height="66" rx="0" fill="#ffffff" stroke="#edf0f4"/><text x="308" y="486" fill="#b45309" font-size="13" font-weight="800" text-anchor="start">준비</text><text x="408" y="486" fill="#111827" font-size="13" font-weight="550" text-anchor="start">여름 특강</text><text x="658" y="486" fill="#111827" font-size="13" font-weight="550" text-anchor="start">김성은</text><text x="818" y="486" fill="#111827" font-size="13" font-weight="550" text-anchor="start">미정</text><text x="1144" y="486" fill="#111827" font-size="13" font-weight="550" text-anchor="end">0명</text><text x="1168" y="486" fill="#111827" font-size="13" font-weight="550" text-anchor="start">교재 미정</text><text x="1408" y="486" fill="#111827" font-size="13" font-weight="550" text-anchor="start">개강 준비</text><rect x="296" y="514" width="1256" height="66" rx="0" fill="#fbfcfd" stroke="#edf0f4"/><text x="308" y="552" fill="#657282" font-size="13" font-weight="800" text-anchor="start">종강</text><text x="408" y="552" fill="#111827" font-size="13" font-weight="550" text-anchor="start">중2 내신</text><text x="658" y="552" fill="#111827" font-size="13" font-weight="550" text-anchor="start">김민경</text><text x="818" y="552" fill="#111827" font-size="13" font-weight="550" text-anchor="start">완료</text><text x="1144" y="552" fill="#111827" font-size="13" font-weight="550" text-anchor="end">9명</text><text x="1168" y="552" fill="#111827" font-size="13" font-weight="550" text-anchor="start">출고 완료</text><text x="1408" y="552" fill="#111827" font-size="13" font-weight="550" text-anchor="start">이력 보기</text>
</svg>