<?xml version="1.0" encoding="UTF-8"?>
<svg xmlns="http://www.w3.org/2000/svg" width="1600" height="960" viewBox="0 0 1600 960">
  <defs>
    <filter id="shadow" x="-20%" y="-20%" width="140%" height="140%">
      <feDropShadow dx="0" dy="12" stdDeviation="14" flood-color="#111827" flood-opacity="0.08"/>
    </filter>
    <linearGradient id="coolWash" x1="0" x2="1" y1="0" y2="1">
      <stop offset="0" stop-color="#f8fbff"/>
      <stop offset="1" stop-color="#f4f6f8"/>
    </linearGradient>
  </defs>
  <rect width="100%" height="100%" fill="#f7f8fb"/>
  <rect x="0" y="0" width="248" height="960" rx="0" fill="#fbfbfc" stroke="none"/><line x1="248" y1="0" x2="248" y2="960" stroke="#dde2ea" stroke-width="1"/><rect x="24" y="24" width="36" height="36" rx="10" fill="#ffffff" stroke="#dde2ea"/><text x="36" y="48" fill="#2563eb" font-size="18" font-weight="850">T</text><text x="72" y="38" fill="#111827" font-size="15" font-weight="800">TIPS Dashboard</text><text x="72" y="57" fill="#657282" font-size="12" font-weight="600">운영 포털</text><text x="24" y="98" fill="#9aa4b2" font-size="12" font-weight="800">운영</text><rect x="28" y="109" width="14" height="14" rx="4" fill="#dde2ea" stroke="none"/><text x="54" y="121" fill="#111827" font-size="14" font-weight="600">대시보드</text><rect x="28" y="149" width="14" height="14" rx="4" fill="#dde2ea" stroke="none"/><text x="54" y="161" fill="#111827" font-size="14" font-weight="600">학사일정</text><rect x="28" y="189" width="14" height="14" rx="4" fill="#dde2ea" stroke="none"/><text x="54" y="201" fill="#111827" font-size="14" font-weight="600">시간표</text><text x="24" y="258" fill="#9aa4b2" font-size="12" font-weight="800">관리</text><rect x="28" y="269" width="14" height="14" rx="4" fill="#dde2ea" stroke="none"/><text x="54" y="281" fill="#111827" font-size="14" font-weight="600">수업계획</text><rect x="28" y="309" width="14" height="14" rx="4" fill="#dde2ea" stroke="none"/><text x="54" y="321" fill="#111827" font-size="14" font-weight="600">학생관리</text><rect x="28" y="349" width="14" height="14" rx="4" fill="#dde2ea" stroke="none"/><text x="54" y="361" fill="#111827" font-size="14" font-weight="600">수업관리</text><rect x="16" y="378" width="216" height="34" rx="10" fill="#eaf1ff" stroke="none"/><rect x="28" y="389" width="14" height="14" rx="4" fill="#2563eb" stroke="none"/><text x="54" y="401" fill="#2563eb" font-size="14" font-weight="800">교재관리</text><text x="24" y="458" fill="#9aa4b2" font-size="12" font-weight="800">설정</text><rect x="28" y="469" width="14" height="14" rx="4" fill="#dde2ea" stroke="none"/><text x="54" y="481" fill="#111827" font-size="14" font-weight="600">환경설정</text><rect x="18" y="886" width="212" height="50" rx="14" fill="#ffffff" stroke="#dde2ea"/><text x="62" y="916" fill="#111827" font-size="14" font-weight="750">임현준</text><text x="62" y="933" fill="#657282" font-size="11" font-weight="500">yeoyuasset</text><rect x="32" y="902" width="24" height="24" rx="99" fill="#eaf1ff" stroke="none"/>
  <rect x="248" y="0" width="1352" height="68" rx="0" fill="#ffffff" stroke="none"/><line x1="248" y1="68" x2="1600" y2="68" stroke="#dde2ea" stroke-width="1"/><text x="276" y="43" fill="#657282" font-size="13" font-weight="650">관리</text><text x="321" y="43" fill="#9aa4b2" font-size="13" font-weight="500">/</text><text x="340" y="43" fill="#111827" font-size="18" font-weight="850">교재관리</text><rect x="1130" y="20" width="130" height="38" rx="10" fill="#ffffff" stroke="#dde2ea"/><text x="1195" y="44" fill="#111827" font-size="14" font-weight="700" text-anchor="middle">홈페이지 확인</text><rect x="1282" y="20" width="228" height="36" rx="9" fill="#ffffff" stroke="#dde2ea"/><text x="1332" y="43" fill="#657282" font-size="13" font-weight="650">빠른 이동</text><rect x="1522" y="20" width="36" height="36" rx="9" fill="#ffffff" stroke="#dde2ea"/>
  <rect x="276" y="96" width="1296" height="62" rx="14" fill="#ffffff" stroke="#dde2ea"/><rect x="290" y="109" width="92" height="34" rx="10" fill="#2563eb" stroke="#2563eb"/><text x="305" y="131" fill="#fff" font-size="13" font-weight="650">마스터</text><rect x="392" y="109" width="92" height="34" rx="10" fill="#ffffff" stroke="#dde2ea"/><text x="407" y="131" fill="#111827" font-size="13" font-weight="650">요청</text><rect x="494" y="109" width="92" height="34" rx="10" fill="#ffffff" stroke="#dde2ea"/><text x="509" y="131" fill="#111827" font-size="13" font-weight="650">주문·입고</text><rect x="596" y="109" width="92" height="34" rx="10" fill="#ffffff" stroke="#dde2ea"/><text x="611" y="131" fill="#111827" font-size="13" font-weight="650">출고</text><rect x="698" y="109" width="92" height="34" rx="10" fill="#ffffff" stroke="#dde2ea"/><text x="713" y="131" fill="#111827" font-size="13" font-weight="650">재고</text><rect x="800" y="109" width="92" height="34" rx="10" fill="#ffffff" stroke="#dde2ea"/><text x="815" y="131" fill="#111827" font-size="13" font-weight="650">정산</text><rect x="1440" y="108" width="110" height="38" rx="10" fill="#2563eb" stroke="#2563eb"/><text x="1495" y="132" fill="#fff" font-size="14" font-weight="700" text-anchor="middle">요청 추가</text><rect x="276" y="172" width="1296" height="54" rx="14" fill="#ffffff" stroke="#dde2ea"/><rect x="290" y="182" width="82" height="34" rx="10" fill="#2563eb" stroke="#2563eb"/><text x="305" y="204" fill="#fff" font-size="13" font-weight="650">대기 5</text><rect x="380" y="182" width="126" height="34" rx="10" fill="#ffffff" stroke="#dde2ea"/><text x="395" y="204" fill="#b45309" font-size="13" font-weight="650">미등록 요청 1</text><rect x="514" y="182" width="112" height="34" rx="10" fill="#ffffff" stroke="#dde2ea"/><text x="529" y="204" fill="#0f766e" font-size="13" font-weight="650">출고 대기 2</text><rect x="276" y="242" width="1296" height="56" rx="14" fill="#ffffff" stroke="#dde2ea"/><circle cx="302" cy="270" r="7" fill="none" stroke="#9aa4b2" stroke-width="2"/><line x1="307" y1="275" x2="314" y2="282" stroke="#9aa4b2" stroke-width="2"/><text x="328" y="276" fill="#657282" font-size="14" font-weight="500">교재명, 수업, 학생, 요청자</text><rect x="1267" y="253" width="74" height="34" rx="10" fill="#ffffff" stroke="#dde2ea"/><text x="1282" y="275" fill="#111827" font-size="13" font-weight="650">필터</text><rect x="1351" y="253" width="74" height="34" rx="10" fill="#ffffff" stroke="#dde2ea"/><text x="1366" y="275" fill="#111827" font-size="13" font-weight="650">일괄</text><rect x="1435" y="253" width="74" height="34" rx="10" fill="#ffffff" stroke="#dde2ea"/><text x="1450" y="275" fill="#111827" font-size="13" font-weight="650">보기</text><rect x="276" y="318" width="1296" height="560" rx="18" fill="#ffffff" stroke="#dde2ea" filter="url(#shadow)"/><text x="300" y="358" fill="#111827" font-size="22" font-weight="850">주문·입고</text><text x="398" y="358" fill="#657282" font-size="13" font-weight="650">표시 1건 · 요청 1</text><rect x="296" y="388" width="1256" height="234" rx="14" fill="#ffffff" stroke="#dde2ea"/><rect x="296" y="388" width="1256" height="42" rx="14" fill="#fafbfc" stroke="none"/><line x1="296" y1="430" x2="1552" y2="430" stroke="#dde2ea" stroke-width="1"/><line x1="406" y1="388" x2="406" y2="622" stroke="#edf0f4" stroke-width="1"/><line x1="576" y1="388" x2="576" y2="622" stroke="#edf0f4" stroke-width="1"/><line x1="706" y1="388" x2="706" y2="622" stroke="#edf0f4" stroke-width="1"/><line x1="1036" y1="388" x2="1036" y2="622" stroke="#edf0f4" stroke-width="1"/><line x1="1126" y1="388" x2="1126" y2="622" stroke="#edf0f4" stroke-width="1"/><line x1="1296" y1="388" x2="1296" y2="622" stroke="#edf0f4" stroke-width="1"/><line x1="1376" y1="388" x2="1376" y2="622" stroke="#edf0f4" stroke-width="1"/><line x1="1526" y1="388" x2="1526" y2="622" stroke="#edf0f4" stroke-width="1"/><text x="308" y="415" fill="#657282" font-size="12" font-weight="700">진행</text><text x="418" y="415" fill="#657282" font-size="12" font-weight="700">처리일시</text><text x="588" y="415" fill="#657282" font-size="12" font-weight="700">요청자</text><text x="718" y="415" fill="#657282" font-size="12" font-weight="700">교재명</text><text x="1048" y="415" fill="#657282" font-size="12" font-weight="700">위치</text><text x="1138" y="415" fill="#657282" font-size="12" font-weight="700">수업</text><text x="1308" y="415" fill="#657282" font-size="12" font-weight="700">요청</text><text x="1388" y="415" fill="#657282" font-size="12" font-weight="700">판단</text><text x="1538" y="415" fill="#657282" font-size="12" font-weight="700">작업</text><rect x="296" y="430" width="1256" height="64" rx="0" fill="#ffffff" stroke="#edf0f4"/><text x="308" y="467" fill="#2563eb" font-size="13" font-weight="800" text-anchor="start">요청</text><text x="418" y="467" fill="#111827" font-size="13" font-weight="550" text-anchor="start">5.5 오후 09:59</text><text x="588" y="467" fill="#111827" font-size="13" font-weight="550" text-anchor="start">-</text><text x="718" y="467" fill="#111827" font-size="13" font-weight="550" text-anchor="start">문제로마스터하는 중학영문법</text><text x="1048" y="467" fill="#111827" font-size="13" font-weight="550" text-anchor="start">본관</text><text x="1138" y="467" fill="#111827" font-size="13" font-weight="550" text-anchor="start">수업 미지정</text><text x="1364" y="467" fill="#111827" font-size="13" font-weight="550" text-anchor="end">1</text><text x="1388" y="467" fill="#b45309" font-size="13" font-weight="800" text-anchor="start">마스터 등록</text><text x="1538" y="467" fill="#111827" font-size="13" font-weight="550" text-anchor="start">검토</text><rect x="296" y="494" width="1256" height="64" rx="0" fill="#fbfcfd" stroke="#edf0f4"/><text x="308" y="531" fill="#6d28d9" font-size="13" font-weight="800" text-anchor="start">주문</text><text x="418" y="531" fill="#111827" font-size="13" font-weight="550" text-anchor="start">5.5 오후 10:13</text><text x="588" y="531" fill="#111827" font-size="13" font-weight="550" text-anchor="start">양소윤</text><text x="718" y="531" fill="#111827" font-size="13" font-weight="550" text-anchor="start">일품 중등 수학 2-1</text><text x="1048" y="531" fill="#111827" font-size="13" font-weight="550" text-anchor="start">본관</text><text x="1138" y="531" fill="#111827" font-size="13" font-weight="550" text-anchor="start">고3 모고반</text><text x="1364" y="531" fill="#111827" font-size="13" font-weight="550" text-anchor="end">6</text><text x="1388" y="531" fill="#0f766e" font-size="13" font-weight="800" text-anchor="start">적정</text><text x="1538" y="531" fill="#111827" font-size="13" font-weight="550" text-anchor="start">입고</text><rect x="296" y="558" width="1256" height="64" rx="0" fill="#ffffff" stroke="#edf0f4"/><text x="308" y="595" fill="#0f766e" font-size="13" font-weight="800" text-anchor="start">출고</text><text x="418" y="595" fill="#111827" font-size="13" font-weight="550" text-anchor="start">5.5 오후 10:20</text><text x="588" y="595" fill="#111827" font-size="13" font-weight="550" text-anchor="start">관리팀</text><text x="718" y="595" fill="#111827" font-size="13" font-weight="550" text-anchor="start">테스트 교재</text><text x="1048" y="595" fill="#111827" font-size="13" font-weight="550" text-anchor="start">본관</text><text x="1138" y="595" fill="#111827" font-size="13" font-weight="550" text-anchor="start">고3 모고반</text><text x="1364" y="595" fill="#111827" font-size="13" font-weight="550" text-anchor="end">5</text><text x="1388" y="595" fill="#be123c" font-size="13" font-weight="800" text-anchor="start">부족 4</text><text x="1538" y="595" fill="#111827" font-size="13" font-weight="550" text-anchor="start">보류</text>
</svg>