<?xml version="1.0" encoding="UTF-8"?>
<svg xmlns="http://www.w3.org/2000/svg" width="1600" height="960" viewBox="0 0 1600 960">
  <defs>
    <filter id="shadow" x="-20%" y="-20%" width="140%" height="140%">
      <feDropShadow dx="0" dy="12" stdDeviation="14" flood-color="#111827" flood-opacity="0.08"/>
    </filter>
    <linearGradient id="coolWash" x1="0" x2="1" y1="0" y2="1">
      <stop offset="0" stop-color="#f8fbff"/>
      <stop offset="1" stop-color="#f4f6f8"/>
    </linearGradient>
  </defs>
  <rect width="100%" height="100%" fill="#f7f8fb"/>
  <rect x="0" y="0" width="248" height="960" rx="0" fill="#fbfbfc" stroke="none"/><line x1="248" y1="0" x2="248" y2="960" stroke="#dde2ea" stroke-width="1"/><rect x="24" y="24" width="36" height="36" rx="10" fill="#ffffff" stroke="#dde2ea"/><text x="36" y="48" fill="#2563eb" font-size="18" font-weight="850">T</text><text x="72" y="38" fill="#111827" font-size="15" font-weight="800">TIPS Dashboard</text><text x="72" y="57" fill="#657282" font-size="12" font-weight="600">운영 포털</text><text x="24" y="98" fill="#9aa4b2" font-size="12" font-weight="800">운영</text><rect x="28" y="109" width="14" height="14" rx="4" fill="#dde2ea" stroke="none"/><text x="54" y="121" fill="#111827" font-size="14" font-weight="600">대시보드</text><rect x="28" y="149" width="14" height="14" rx="4" fill="#dde2ea" stroke="none"/><text x="54" y="161" fill="#111827" font-size="14" font-weight="600">학사일정</text><rect x="28" y="189" width="14" height="14" rx="4" fill="#dde2ea" stroke="none"/><text x="54" y="201" fill="#111827" font-size="14" font-weight="600">시간표</text><text x="24" y="258" fill="#9aa4b2" font-size="12" font-weight="800">관리</text><rect x="28" y="269" width="14" height="14" rx="4" fill="#dde2ea" stroke="none"/><text x="54" y="281" fill="#111827" font-size="14" font-weight="600">수업계획</text><rect x="28" y="309" width="14" height="14" rx="4" fill="#dde2ea" stroke="none"/><text x="54" y="321" fill="#111827" font-size="14" font-weight="600">학생관리</text><rect x="28" y="349" width="14" height="14" rx="4" fill="#dde2ea" stroke="none"/><text x="54" y="361" fill="#111827" font-size="14" font-weight="600">수업관리</text><rect x="28" y="389" width="14" height="14" rx="4" fill="#dde2ea" stroke="none"/><text x="54" y="401" fill="#111827" font-size="14" font-weight="600">교재관리</text><text x="24" y="458" fill="#9aa4b2" font-size="12" font-weight="800">설정</text><rect x="16" y="458" width="216" height="34" rx="10" fill="#eaf1ff" stroke="none"/><rect x="28" y="469" width="14" height="14" rx="4" fill="#2563eb" stroke="none"/><text x="54" y="481" fill="#2563eb" font-size="14" font-weight="800">환경설정</text><rect x="18" y="886" width="212" height="50" rx="14" fill="#ffffff" stroke="#dde2ea"/><text x="62" y="916" fill="#111827" font-size="14" font-weight="750">임현준</text><text x="62" y="933" fill="#657282" font-size="11" font-weight="500">yeoyuasset</text><rect x="32" y="902" width="24" height="24" rx="99" fill="#eaf1ff" stroke="none"/>
  <rect x="248" y="0" width="1352" height="68" rx="0" fill="#ffffff" stroke="none"/><line x1="248" y1="68" x2="1600" y2="68" stroke="#dde2ea" stroke-width="1"/><text x="276" y="43" fill="#657282" font-size="13" font-weight="650">설정</text><text x="321" y="43" fill="#9aa4b2" font-size="13" font-weight="500">/</text><text x="340" y="43" fill="#111827" font-size="18" font-weight="850">교재 설정</text><rect x="1130" y="20" width="130" height="38" rx="10" fill="#ffffff" stroke="#dde2ea"/><text x="1195" y="44" fill="#111827" font-size="14" font-weight="700" text-anchor="middle">홈페이지 확인</text><rect x="1282" y="20" width="228" height="36" rx="9" fill="#ffffff" stroke="#dde2ea"/><text x="1332" y="43" fill="#657282" font-size="13" font-weight="650">빠른 이동</text><rect x="1522" y="20" width="36" height="36" rx="9" fill="#ffffff" stroke="#dde2ea"/>
  <rect x="276" y="96" width="1296" height="62" rx="14" fill="#ffffff" stroke="#dde2ea"/><rect x="290" y="110" width="106" height="34" rx="10" fill="#2563eb" stroke="#2563eb"/><text x="305" y="132" fill="#fff" font-size="13" font-weight="650">출판사 28</text><rect x="408" y="110" width="106" height="34" rx="10" fill="#ffffff" stroke="#dde2ea"/><text x="423" y="132" fill="#111827" font-size="13" font-weight="650">총판 6</text><rect x="526" y="110" width="106" height="34" rx="10" fill="#ffffff" stroke="#dde2ea"/><text x="541" y="132" fill="#111827" font-size="13" font-weight="650">세부과목 16</text><rect x="276" y="174" width="1296" height="56" rx="14" fill="#ffffff" stroke="#dde2ea"/><circle cx="302" cy="202" r="7" fill="none" stroke="#9aa4b2" stroke-width="2"/><line x1="307" y1="207" x2="314" y2="214" stroke="#9aa4b2" stroke-width="2"/><text x="328" y="208" fill="#657282" font-size="14" font-weight="500">출판사, 총판, 세부과목 검색</text><rect x="1267" y="185" width="74" height="34" rx="10" fill="#ffffff" stroke="#dde2ea"/><text x="1282" y="207" fill="#111827" font-size="13" font-weight="650">과목</text><rect x="1351" y="185" width="74" height="34" rx="10" fill="#ffffff" stroke="#dde2ea"/><text x="1366" y="207" fill="#111827" font-size="13" font-weight="650">정렬</text><rect x="1435" y="185" width="74" height="34" rx="10" fill="#ffffff" stroke="#dde2ea"/><text x="1450" y="207" fill="#111827" font-size="13" font-weight="650">저장</text><rect x="276" y="250" width="1296" height="618" rx="18" fill="#ffffff" stroke="#dde2ea" filter="url(#shadow)"/><rect x="296" y="276" width="1256" height="306" rx="14" fill="#ffffff" stroke="#dde2ea"/><rect x="296" y="276" width="1256" height="42" rx="14" fill="#fafbfc" stroke="none"/><line x1="296" y1="318" x2="1552" y2="318" stroke="#dde2ea" stroke-width="1"/><line x1="466" y1="276" x2="466" y2="582" stroke="#edf0f4" stroke-width="1"/><line x1="746" y1="276" x2="746" y2="582" stroke="#edf0f4" stroke-width="1"/><line x1="876" y1="276" x2="876" y2="582" stroke="#edf0f4" stroke-width="1"/><line x1="1136" y1="276" x2="1136" y2="582" stroke="#edf0f4" stroke-width="1"/><line x1="1256" y1="276" x2="1256" y2="582" stroke="#edf0f4" stroke-width="1"/><text x="308" y="303" fill="#657282" font-size="12" font-weight="700">과목</text><text x="478" y="303" fill="#657282" font-size="12" font-weight="700">출판사</text><text x="758" y="303" fill="#657282" font-size="12" font-weight="700">연결 교재</text><text x="888" y="303" fill="#657282" font-size="12" font-weight="700">총판</text><text x="1148" y="303" fill="#657282" font-size="12" font-weight="700">상태</text><text x="1268" y="303" fill="#657282" font-size="12" font-weight="700">작업</text><rect x="296" y="318" width="1256" height="66" rx="0" fill="#ffffff" stroke="#edf0f4"/><text x="308" y="356" fill="#111827" font-size="13" font-weight="550" text-anchor="start">수학</text><text x="478" y="356" fill="#111827" font-size="13" font-weight="550" text-anchor="start">개념원리</text><text x="864" y="356" fill="#111827" font-size="13" font-weight="550" text-anchor="end">17종</text><text x="888" y="356" fill="#111827" font-size="13" font-weight="550" text-anchor="start">영주교육</text><text x="1148" y="356" fill="#0f766e" font-size="13" font-weight="800" text-anchor="start">사용</text><text x="1268" y="356" fill="#111827" font-size="13" font-weight="550" text-anchor="start">수정</text><rect x="296" y="384" width="1256" height="66" rx="0" fill="#fbfcfd" stroke="#edf0f4"/><text x="308" y="422" fill="#111827" font-size="13" font-weight="550" text-anchor="start">영어, 수학</text><text x="478" y="422" fill="#111827" font-size="13" font-weight="550" text-anchor="start">능률</text><text x="864" y="422" fill="#111827" font-size="13" font-weight="550" text-anchor="end">54종</text><text x="888" y="422" fill="#111827" font-size="13" font-weight="550" text-anchor="start">영주교육</text><text x="1148" y="422" fill="#0f766e" font-size="13" font-weight="800" text-anchor="start">사용</text><text x="1268" y="422" fill="#111827" font-size="13" font-weight="550" text-anchor="start">수정</text><rect x="296" y="450" width="1256" height="66" rx="0" fill="#ffffff" stroke="#edf0f4"/><text x="308" y="488" fill="#111827" font-size="13" font-weight="550" text-anchor="start">영어</text><text x="478" y="488" fill="#111827" font-size="13" font-weight="550" text-anchor="start">다락원</text><text x="864" y="488" fill="#111827" font-size="13" font-weight="550" text-anchor="end">0종</text><text x="888" y="488" fill="#111827" font-size="13" font-weight="550" text-anchor="start">대진서점</text><text x="1148" y="488" fill="#b45309" font-size="13" font-weight="800" text-anchor="start">검토</text><text x="1268" y="488" fill="#111827" font-size="13" font-weight="550" text-anchor="start">정리</text><rect x="296" y="516" width="1256" height="66" rx="0" fill="#fbfcfd" stroke="#edf0f4"/><text x="308" y="554" fill="#111827" font-size="13" font-weight="550" text-anchor="start">수학</text><text x="478" y="554" fill="#111827" font-size="13" font-weight="550" text-anchor="start">수경출판사</text><text x="864" y="554" fill="#111827" font-size="13" font-weight="550" text-anchor="end">13종</text><text x="888" y="554" fill="#111827" font-size="13" font-weight="550" text-anchor="start">영주교육</text><text x="1148" y="554" fill="#2563eb" font-size="13" font-weight="800" text-anchor="start">병합 완료</text><text x="1268" y="554" fill="#111827" font-size="13" font-weight="550" text-anchor="start">이력</text><rect x="1206" y="314" width="300" height="286" rx="18" fill="#eaf1ff" stroke="#2563eb"/><text x="1234" y="354" fill="#111827" font-size="20" font-weight="850">세부과목 순서</text><rect x="1234" y="380" width="244" height="30" rx="8" fill="#ffffff" stroke="#dde2ea"/><text x="1250" y="400" fill="#111827" font-size="13" font-weight="700">1. 공통수학1</text><rect x="1234" y="420" width="244" height="30" rx="8" fill="#ffffff" stroke="#dde2ea"/><text x="1250" y="440" fill="#111827" font-size="13" font-weight="700">2. 공통수학2</text><rect x="1234" y="460" width="244" height="30" rx="8" fill="#ffffff" stroke="#dde2ea"/><text x="1250" y="480" fill="#111827" font-size="13" font-weight="700">3. 단어</text><rect x="1234" y="500" width="244" height="30" rx="8" fill="#ffffff" stroke="#dde2ea"/><text x="1250" y="520" fill="#111827" font-size="13" font-weight="700">4. 독해</text><rect x="1234" y="540" width="244" height="30" rx="8" fill="#ffffff" stroke="#dde2ea"/><text x="1250" y="560" fill="#111827" font-size="13" font-weight="700">5. 문법</text>
</svg>